0
SECTION
2
HEADER
9
$ACADVER
1
AC1021
9
$DWGCODEPAGE
3
UTF-8
0
ENDSEC
0
SECTION
2
TABLES
0
TABLE
2
LTYPE
70
2
0
LTYPE
2
CONTINUOUS
70
0
3
Solid line
72
65
73
0
40
0.0
0
LTYPE
2
DASHED
70
0
3
Dashed __ __
72
65
73
2
40
12.0
49
8.0
74
0
49
-4.0
74
0
0
ENDTAB
0
ENDSEC
0
SECTION
2
ENTITIES
0
LINE
8
OUTLINE
6
CONTINUOUS
370
25
10
447.0
20
2097.0
30
0
11
1203.0
21
2097.0
31
0
0
LINE
8
OUTLINE
6
CONTINUOUS
370
25
10
1203.0
20
2097.0
30
0
11
1203.0
21
2853.0
31
0
0
LINE
8
OUTLINE
6
CONTINUOUS
370
25
10
1203.0
20
2853.0
30
0
11
447.0
21
2853.0
31
0
0
LINE
8
OUTLINE
6
CONTINUOUS
370
25
10
447.0
20
2853.0
30
0
11
447.0
21
2097.0
31
0
0
LINE
8
EFFECTIVE
6
CONTINUOUS
370
18
10
450.0
20
2100.0
30
0
11
1200.0
21
2100.0
31
0
0
LINE
8
EFFECTIVE
6
CONTINUOUS
370
18
10
1200.0
20
2100.0
30
0
11
1200.0
21
2850.0
31
0
0
LINE
8
EFFECTIVE
6
CONTINUOUS
370
18
10
1200.0
20
2850.0
30
0
11
450.0
21
2850.0
31
0
0
LINE
8
EFFECTIVE
6
CONTINUOUS
370
18
10
450.0
20
2850.0
30
0
11
450.0
21
2100.0
31
0
0
LINE
8
ELECTRICAL_ENVELOPE
6
DASHED
370
25
10
675.0
20
2853.0
30
0
11
975.0
21
2853.0
31
0
0
LINE
8
ELECTRICAL_ENVELOPE
6
DASHED
370
25
10
975.0
20
2853.0
30
0
11
975.0
21
2973.0
31
0
0
LINE
8
ELECTRICAL_ENVELOPE
6
DASHED
370
25
10
975.0
20
2973.0
30
0
11
675.0
21
2973.0
31
0
0
LINE
8
ELECTRICAL_ENVELOPE
6
DASHED
370
25
10
675.0
20
2973.0
30
0
11
675.0
21
2853.0
31
0
0
LINE
8
LEADER
6
CONTINUOUS
370
18
10
975.0
20
2973.0
30
0
11
1288.0
21
3286.0
31
0
0
LINE
8
LEADER
6
CONTINUOUS
370
18
10
1288.0
20
3286.0
30
0
11
1348.0
21
3286.0
31
0
0
TEXT
8
TEXT
10
1356.0
20
3286.0
30
0
40
20
1
전장 설치 공간 (챔버 외부)
0
LINE
8
DIM
6
CONTINUOUS
370
18
10
675.0
20
3073.0
30
0
11
975.0
21
3073.0
31
0
0
LINE
8
DIM
6
CONTINUOUS
370
18
10
675.0
20
3061.0
30
0
11
675.0
21
3085.0
31
0
0
LINE
8
DIM
6
CONTINUOUS
370
18
10
975.0
20
3061.0
30
0
11
975.0
21
3085.0
31
0
0
TEXT
8
DIM
10
764.5
20
3089.0
30
0
40
22
1
전장 폭 300
0
LINE
8
DIM
6
CONTINUOUS
370
18
10
375.0
20
2853.0
30
0
11
375.0
21
2973.0
31
0
0
LINE
8
DIM
6
CONTINUOUS
370
18
10
363.0
20
2853.0
30
0
11
387.0
21
2853.0
31
0
0
LINE
8
DIM
6
CONTINUOUS
370
18
10
363.0
20
2973.0
30
0
11
387.0
21
2973.0
31
0
0
TEXT
8
DIM
10
216.00000000000003
20
2913.0
30
0
40
22
1
전장 높이 120
0
LINE
8
FRAME
6
CONTINUOUS
370
30
10
450.0
20
2182.0
30
0
11
1200.0
21
2182.0
31
0
0
LINE
8
FRAME
6
CONTINUOUS
370
30
10
1200.0
20
2182.0
30
0
11
1200.0
21
2200.0
31
0
0
LINE
8
FRAME
6
CONTINUOUS
370
30
10
1200.0
20
2200.0
30
0
11
450.0
21
2200.0
31
0
0
LINE
8
FRAME
6
CONTINUOUS
370
30
10
450.0
20
2200.0
30
0
11
450.0
21
2182.0
31
0
0
LINE
8
FRAME
6
CONTINUOUS
370
30
10
485.0
20
2100.0
30
0
11
520.0
21
2100.0
31
0
0
LINE
8
FRAME
6
CONTINUOUS
370
30
10
520.0
20
2100.0
30
0
11
520.0
21
2182.0
31
0
0
LINE
8
FRAME
6
CONTINUOUS
370
30
10
520.0
20
2182.0
30
0
11
485.0
21
2182.0
31
0
0
LINE
8
FRAME
6
CONTINUOUS
370
30
10
485.0
20
2182.0
30
0
11
485.0
21
2100.0
31
0
0
LINE
8
FRAME
6
CONTINUOUS
370
30
10
1130.0
20
2100.0
30
0
11
1165.0
21
2100.0
31
0
0
LINE
8
FRAME
6
CONTINUOUS
370
30
10
1165.0
20
2100.0
30
0
11
1165.0
21
2182.0
31
0
0
LINE
8
FRAME
6
CONTINUOUS
370
30
10
1165.0
20
2182.0
30
0
11
1130.0
21
2182.0
31
0
0
LINE
8
FRAME
6
CONTINUOUS
370
30
10
1130.0
20
2182.0
30
0
11
1130.0
21
2100.0
31
0
0
LINE
8
PACK
6
CONTINUOUS
370
35
10
600.0
20
2200.0
30
0
11
1050.0
21
2200.0
31
0
0
LINE
8
PACK
6
CONTINUOUS
370
35
10
1050.0
20
2200.0
30
0
11
1050.0
21
2450.0
31
0
0
LINE
8
PACK
6
CONTINUOUS
370
35
10
1050.0
20
2450.0
30
0
11
600.0
21
2450.0
31
0
0
LINE
8
PACK
6
CONTINUOUS
370
35
10
600.0
20
2450.0
30
0
11
600.0
21
2200.0
31
0
0
LINE
8
DOOR
6
CONTINUOUS
370
18
10
525.0
20
2100.0
30
0
11
1125.0
21
2100.0
31
0
0
LINE
8
DOOR
6
CONTINUOUS
370
18
10
525.0
20
2100.0
30
0
11
525.0
21
2600.0
31
0
0
LINE
8
DOOR
6
CONTINUOUS
370
18
10
1125.0
20
2100.0
30
0
11
1125.0
21
2600.0
31
0
0
LINE
8
DOOR
6
CONTINUOUS
370
18
10
525.0
20
2600.0
30
0
11
1125.0
21
2600.0
31
0
0
LINE
8
WINDOW
6
CONTINUOUS
370
18
10
625.0
20
2250.0
30
0
11
1025.0
21
2250.0
31
0
0
LINE
8
WINDOW
6
CONTINUOUS
370
18
10
1025.0
20
2250.0
30
0
11
1025.0
21
2550.0
31
0
0
LINE
8
WINDOW
6
CONTINUOUS
370
18
10
1025.0
20
2550.0
30
0
11
625.0
21
2550.0
31
0
0
LINE
8
WINDOW
6
CONTINUOUS
370
18
10
625.0
20
2550.0
30
0
11
625.0
21
2250.0
31
0
0
LINE
8
HANDLE
6
CONTINUOUS
370
30
10
1085.0
20
2275.0
30
0
11
1085.0
21
2425.0
31
0
0
LINE
8
HANDLE
6
CONTINUOUS
370
30
10
1077.0
20
2275.0
30
0
11
1093.0
21
2275.0
31
0
0
LINE
8
HANDLE
6
CONTINUOUS
370
30
10
1077.0
20
2425.0
30
0
11
1093.0
21
2425.0
31
0
0
TEXT
8
TEXT
10
450.0
20
3300.0
30
0
40
30
1
정면 (도어측)
0
LINE
8
LEADER
6
CONTINUOUS
370
18
10
1050.0
20
2450.0
30
0
11
1238.0
21
2638.0
31
0
0
LINE
8
LEADER
6
CONTINUOUS
370
18
10
1238.0
20
2638.0
30
0
11
1298.0
21
2638.0
31
0
0
TEXT
8
TEXT
10
1306.0
20
2638.0
30
0
40
20
1
시료 팩 1
0
LINE
8
LEADER
6
CONTINUOUS
370
18
10
1200.0
20
2200.0
30
0
11
1238.0
21
2162.0
31
0
0
LINE
8
LEADER
6
CONTINUOUS
370
18
10
1238.0
20
2162.0
30
0
11
1298.0
21
2162.0
31
0
0
TEXT
8
TEXT
10
1306.0
20
2162.0
30
0
40
20
1
받침 프레임 H100
0
LINE
8
LEADER
6
CONTINUOUS
370
18
10
1125.0
20
2600.0
30
0
11
1288.0
21
2763.0
31
0
0
LINE
8
LEADER
6
CONTINUOUS
370
18
10
1288.0
20
2763.0
30
0
11
1348.0
21
2763.0
31
0
0
TEXT
8
TEXT
10
1356.0
20
2763.0
30
0
40
20
1
도어 개구 600 x 500
0
LINE
8
LEADER
6
CONTINUOUS
370
18
10
625.0
20
2550.0
30
0
11
312.0
21
2237.0
31
0
0
LINE
8
LEADER
6
CONTINUOUS
370
18
10
312.0
20
2237.0
30
0
11
252.0
21
2237.0
31
0
0
TEXT
8
TEXT
10
79.00000000000003
20
2237.0
30
0
40
20
1
관찰창 400 x 300
0
LINE
8
LEADER
6
CONTINUOUS
370
18
10
1085.0
20
2350.0
30
0
11
1238.0
21
2503.0
31
0
0
LINE
8
LEADER
6
CONTINUOUS
370
18
10
1238.0
20
2503.0
30
0
11
1298.0
21
2503.0
31
0
0
TEXT
8
TEXT
10
1306.0
20
2503.0
30
0
40
20
1
레버형 다점 래치 핸들 L150
0
LINE
8
SEN55
6
CONTINUOUS
370
25
10
798.85
20
2806.7
30
0
11
851.15
21
2806.7
31
0
0
LINE
8
SEN55
6
CONTINUOUS
370
25
10
851.15
20
2806.7
30
0
11
851.15
21
2850.0
31
0
0
LINE
8
SEN55
6
CONTINUOUS
370
25
10
851.15
20
2850.0
30
0
11
798.85
21
2850.0
31
0
0
LINE
8
SEN55
6
CONTINUOUS
370
25
10
798.85
20
2850.0
30
0
11
798.85
21
2806.7
31
0
0
LINE
8
LEADER
6
CONTINUOUS
370
18
10
825.0
20
2850.0
30
0
11
472.0
21
3203.0
31
0
0
LINE
8
LEADER
6
CONTINUOUS
370
18
10
472.0
20
3203.0
30
0
11
412.0
21
3203.0
31
0
0
TEXT
8
TEXT
10
297.0
20
3203.0
30
0
40
20
1
SEN55 후방
0
LINE
8
SEN55
6
CONTINUOUS
370
25
10
582.3436490538903
20
2806.7
30
0
11
634.6436490538903
21
2806.7
31
0
0
LINE
8
SEN55
6
CONTINUOUS
370
25
10
634.6436490538903
20
2806.7
30
0
11
634.6436490538903
21
2850.0
31
0
0
LINE
8
SEN55
6
CONTINUOUS
370
25
10
634.6436490538903
20
2850.0
30
0
11
582.3436490538903
21
2850.0
31
0
0
LINE
8
SEN55
6
CONTINUOUS
370
25
10
582.3436490538903
20
2850.0
30
0
11
582.3436490538903
21
2806.7
31
0
0
LINE
8
LEADER
6
CONTINUOUS
370
18
10
608.4936490538903
20
2850.0
30
0
11
412.0
21
3046.4936490538903
31
0
0
LINE
8
LEADER
6
CONTINUOUS
370
18
10
412.0
20
3046.4936490538903
30
0
11
352.0
21
3046.4936490538903
31
0
0
TEXT
8
TEXT
10
217.0
20
3046.4936490538903
30
0
40
20
1
SEN55 전방좌
0
LINE
8
SEN55
6
CONTINUOUS
370
25
10
1015.3563509461097
20
2806.7
30
0
11
1067.6563509461098
21
2806.7
31
0
0
LINE
8
SEN55
6
CONTINUOUS
370
25
10
1067.6563509461098
20
2806.7
30
0
11
1067.6563509461098
21
2850.0
31
0
0
LINE
8
SEN55
6
CONTINUOUS
370
25
10
1067.6563509461098
20
2850.0
30
0
11
1015.3563509461097
21
2850.0
31
0
0
LINE
8
SEN55
6
CONTINUOUS
370
25
10
1015.3563509461097
20
2850.0
30
0
11
1015.3563509461097
21
2806.7
31
0
0
LINE
8
LEADER
6
CONTINUOUS
370
18
10
1041.5063509461097
20
2850.0
30
0
11
1238.0
21
3046.4936490538903
31
0
0
LINE
8
LEADER
6
CONTINUOUS
370
18
10
1238.0
20
3046.4936490538903
30
0
11
1298.0
21
3046.4936490538903
31
0
0
TEXT
8
TEXT
10
1306.0
20
3046.4936490538903
30
0
40
20
1
SEN55 전방우
0
LINE
8
DIM
6
CONTINUOUS
370
18
10
1085.0
20
1860.0
30
0
11
1125.0
21
1860.0
31
0
0
LINE
8
DIM
6
CONTINUOUS
370
18
10
1085.0
20
1848.0
30
0
11
1085.0
21
1872.0
31
0
0
LINE
8
DIM
6
CONTINUOUS
370
18
10
1125.0
20
1848.0
30
0
11
1125.0
21
1872.0
31
0
0
TEXT
8
DIM
10
1029.1
20
1876.0
30
0
40
22
1
핸들 오프셋 40
0
LINE
8
DIM
6
CONTINUOUS
370
18
10
-303.0
20
2275.0
30
0
11
-303.0
21
2425.0
31
0
0
LINE
8
DIM
6
CONTINUOUS
370
18
10
-315.0
20
2275.0
30
0
11
-291.0
21
2275.0
31
0
0
LINE
8
DIM
6
CONTINUOUS
370
18
10
-315.0
20
2425.0
30
0
11
-291.0
21
2425.0
31
0
0
TEXT
8
DIM
10
-462.0
20
2350.0
30
0
40
22
1
핸들 길이 150
0
LINE
8
DIM
6
CONTINUOUS
370
18
10
447.0
20
1915.0
30
0
11
1203.0
21
1915.0
31
0
0
LINE
8
DIM
6
CONTINUOUS
370
18
10
447.0
20
1903.0
30
0
11
447.0
21
1927.0
31
0
0
LINE
8
DIM
6
CONTINUOUS
370
18
10
1203.0
20
1903.0
30
0
11
1203.0
21
1927.0
31
0
0
TEXT
8
DIM
10
714.45
20
1931.0
30
0
40
22
1
외형 폭 756 (W_out)
0
LINE
8
DIM
6
CONTINUOUS
370
18
10
450.0
20
1970.0
30
0
11
1200.0
21
1970.0
31
0
0
LINE
8
DIM
6
CONTINUOUS
370
18
10
450.0
20
1958.0
30
0
11
450.0
21
1982.0
31
0
0
LINE
8
DIM
6
CONTINUOUS
370
18
10
1200.0
20
1958.0
30
0
11
1200.0
21
1982.0
31
0
0
TEXT
8
DIM
10
721.0500000000001
20
1986.0
30
0
40
22
1
내부 폭 750 (W_in)
0
LINE
8
DIM
6
CONTINUOUS
370
18
10
450.0
20
2025.0
30
0
11
600.0
21
2025.0
31
0
0
LINE
8
DIM
6
CONTINUOUS
370
18
10
450.0
20
2013.0
30
0
11
450.0
21
2037.0
31
0
0
LINE
8
DIM
6
CONTINUOUS
370
18
10
600.0
20
2013.0
30
0
11
600.0
21
2037.0
31
0
0
TEXT
8
DIM
10
396.85
20
2041.0
30
0
40
22
1
좌측 여유 150 (C_side)
0
LINE
8
DIM
6
CONTINUOUS
370
18
10
1050.0
20
2025.0
30
0
11
1200.0
21
2025.0
31
0
0
LINE
8
DIM
6
CONTINUOUS
370
18
10
1050.0
20
2013.0
30
0
11
1050.0
21
2037.0
31
0
0
LINE
8
DIM
6
CONTINUOUS
370
18
10
1200.0
20
2013.0
30
0
11
1200.0
21
2037.0
31
0
0
TEXT
8
DIM
10
996.85
20
2041.0
30
0
40
22
1
우측 여유 150 (C_side)
0
LINE
8
DIM
6
CONTINUOUS
370
18
10
-50.0
20
2097.0
30
0
11
-50.0
21
2853.0
31
0
0
LINE
8
DIM
6
CONTINUOUS
370
18
10
-62.0
20
2097.0
30
0
11
-38.0
21
2097.0
31
0
0
LINE
8
DIM
6
CONTINUOUS
370
18
10
-62.0
20
2853.0
30
0
11
-38.0
21
2853.0
31
0
0
TEXT
8
DIM
10
-309.0999999999999
20
2475.0
30
0
40
22
1
외형 높이 756 (H_out)
0
LINE
8
DIM
6
CONTINUOUS
370
18
10
275.0
20
2100.0
30
0
11
275.0
21
2850.0
31
0
0
LINE
8
DIM
6
CONTINUOUS
370
18
10
263.0
20
2100.0
30
0
11
287.0
21
2100.0
31
0
0
LINE
8
DIM
6
CONTINUOUS
370
18
10
263.0
20
2850.0
30
0
11
287.0
21
2850.0
31
0
0
TEXT
8
DIM
10
29.10000000000008
20
2475.0
30
0
40
22
1
내부 높이 750 (H_in)
0
LINE
8
DIM
6
CONTINUOUS
370
18
10
275.0
20
2100.0
30
0
11
275.0
21
2200.0
31
0
0
LINE
8
DIM
6
CONTINUOUS
370
18
10
263.0
20
2100.0
30
0
11
287.0
21
2100.0
31
0
0
LINE
8
DIM
6
CONTINUOUS
370
18
10
263.0
20
2200.0
30
0
11
287.0
21
2200.0
31
0
0
TEXT
8
DIM
10
-23.699999999999875
20
2150.0
30
0
40
22
1
하부 여유 100 (C_bottom)
0
LINE
8
DIM
6
CONTINUOUS
370
18
10
275.0
20
2450.0
30
0
11
275.0
21
2850.0
31
0
0
LINE
8
DIM
6
CONTINUOUS
370
18
10
263.0
20
2450.0
30
0
11
287.0
21
2450.0
31
0
0
LINE
8
DIM
6
CONTINUOUS
370
18
10
263.0
20
2850.0
30
0
11
287.0
21
2850.0
31
0
0
TEXT
8
DIM
10
15.900000000000091
20
2650.0
30
0
40
22
1
상부 여유 400 (C_top)
0
LINE
8
OUTLINE
6
CONTINUOUS
370
25
10
1897.0
20
2097.0
30
0
11
2993.0
21
2097.0
31
0
0
LINE
8
OUTLINE
6
CONTINUOUS
370
25
10
2993.0
20
2097.0
30
0
11
2993.0
21
2853.0
31
0
0
LINE
8
OUTLINE
6
CONTINUOUS
370
25
10
2993.0
20
2853.0
30
0
11
1897.0
21
2853.0
31
0
0
LINE
8
OUTLINE
6
CONTINUOUS
370
25
10
1897.0
20
2853.0
30
0
11
1897.0
21
2097.0
31
0
0
LINE
8
EFFECTIVE
6
CONTINUOUS
370
18
10
1900.0
20
2100.0
30
0
11
2990.0
21
2100.0
31
0
0
LINE
8
EFFECTIVE
6
CONTINUOUS
370
18
10
2990.0
20
2100.0
30
0
11
2990.0
21
2850.0
31
0
0
LINE
8
EFFECTIVE
6
CONTINUOUS
370
18
10
2990.0
20
2850.0
30
0
11
1900.0
21
2850.0
31
0
0
LINE
8
EFFECTIVE
6
CONTINUOUS
370
18
10
1900.0
20
2850.0
30
0
11
1900.0
21
2100.0
31
0
0
LINE
8
ELECTRICAL_ENVELOPE
6
DASHED
370
25
10
2370.0
20
2853.0
30
0
11
2520.0
21
2853.0
31
0
0
LINE
8
ELECTRICAL_ENVELOPE
6
DASHED
370
25
10
2520.0
20
2853.0
30
0
11
2520.0
21
2973.0
31
0
0
LINE
8
ELECTRICAL_ENVELOPE
6
DASHED
370
25
10
2520.0
20
2973.0
30
0
11
2370.0
21
2973.0
31
0
0
LINE
8
ELECTRICAL_ENVELOPE
6
DASHED
370
25
10
2370.0
20
2973.0
30
0
11
2370.0
21
2853.0
31
0
0
LINE
8
DIM
6
CONTINUOUS
370
18
10
2370.0
20
3073.0
30
0
11
2520.0
21
3073.0
31
0
0
LINE
8
DIM
6
CONTINUOUS
370
18
10
2370.0
20
3061.0
30
0
11
2370.0
21
3085.0
31
0
0
LINE
8
DIM
6
CONTINUOUS
370
18
10
2520.0
20
3061.0
30
0
11
2520.0
21
3085.0
31
0
0
TEXT
8
DIM
10
2373.5
20
3089.0
30
0
40
22
1
전장 깊이 150
0
LINE
8
FRAME
6
CONTINUOUS
370
30
10
1900.0
20
2182.0
30
0
11
2990.0
21
2182.0
31
0
0
LINE
8
FRAME
6
CONTINUOUS
370
30
10
2990.0
20
2182.0
30
0
11
2990.0
21
2200.0
31
0
0
LINE
8
FRAME
6
CONTINUOUS
370
30
10
2990.0
20
2200.0
30
0
11
1900.0
21
2200.0
31
0
0
LINE
8
FRAME
6
CONTINUOUS
370
30
10
1900.0
20
2200.0
30
0
11
1900.0
21
2182.0
31
0
0
LINE
8
FRAME
6
CONTINUOUS
370
30
10
1935.0
20
2100.0
30
0
11
1970.0
21
2100.0
31
0
0
LINE
8
FRAME
6
CONTINUOUS
370
30
10
1970.0
20
2100.0
30
0
11
1970.0
21
2182.0
31
0
0
LINE
8
FRAME
6
CONTINUOUS
370
30
10
1970.0
20
2182.0
30
0
11
1935.0
21
2182.0
31
0
0
LINE
8
FRAME
6
CONTINUOUS
370
30
10
1935.0
20
2182.0
30
0
11
1935.0
21
2100.0
31
0
0
LINE
8
FRAME
6
CONTINUOUS
370
30
10
2920.0
20
2100.0
30
0
11
2955.0
21
2100.0
31
0
0
LINE
8
FRAME
6
CONTINUOUS
370
30
10
2955.0
20
2100.0
30
0
11
2955.0
21
2182.0
31
0
0
LINE
8
FRAME
6
CONTINUOUS
370
30
10
2955.0
20
2182.0
30
0
11
2920.0
21
2182.0
31
0
0
LINE
8
FRAME
6
CONTINUOUS
370
30
10
2920.0
20
2182.0
30
0
11
2920.0
21
2100.0
31
0
0
LINE
8
PACK
6
CONTINUOUS
370
35
10
2050.0
20
2200.0
30
0
11
2840.0
21
2200.0
31
0
0
LINE
8
PACK
6
CONTINUOUS
370
35
10
2840.0
20
2200.0
30
0
11
2840.0
21
2450.0
31
0
0
LINE
8
PACK
6
CONTINUOUS
370
35
10
2840.0
20
2450.0
30
0
11
2050.0
21
2450.0
31
0
0
LINE
8
PACK
6
CONTINUOUS
370
35
10
2050.0
20
2450.0
30
0
11
2050.0
21
2200.0
31
0
0
TEXT
8
TEXT
10
1900.0
20
3000.0
30
0
40
30
1
측면
0
LINE
8
DIM
6
CONTINUOUS
370
18
10
1897.0
20
1915.0
30
0
11
2993.0
21
1915.0
31
0
0
LINE
8
DIM
6
CONTINUOUS
370
18
10
1897.0
20
1903.0
30
0
11
1897.0
21
1927.0
31
0
0
LINE
8
DIM
6
CONTINUOUS
370
18
10
2993.0
20
1903.0
30
0
11
2993.0
21
1927.0
31
0
0
TEXT
8
DIM
10
2316.85
20
1931.0
30
0
40
22
1
외형 깊이 1096 (D_out)
0
LINE
8
DIM
6
CONTINUOUS
370
18
10
1900.0
20
1970.0
30
0
11
2990.0
21
1970.0
31
0
0
LINE
8
DIM
6
CONTINUOUS
370
18
10
1900.0
20
1958.0
30
0
11
1900.0
21
1982.0
31
0
0
LINE
8
DIM
6
CONTINUOUS
370
18
10
2990.0
20
1958.0
30
0
11
2990.0
21
1982.0
31
0
0
TEXT
8
DIM
10
2323.45
20
1986.0
30
0
40
22
1
내부 깊이 1090 (D_in)
0
LINE
8
DIM
6
CONTINUOUS
370
18
10
1900.0
20
2025.0
30
0
11
2050.0
21
2025.0
31
0
0
LINE
8
DIM
6
CONTINUOUS
370
18
10
1900.0
20
2013.0
30
0
11
1900.0
21
2037.0
31
0
0
LINE
8
DIM
6
CONTINUOUS
370
18
10
2050.0
20
2013.0
30
0
11
2050.0
21
2037.0
31
0
0
TEXT
8
DIM
10
1840.25
20
2041.0
30
0
40
22
1
전면 여유 150 (C_front)
0
LINE
8
DIM
6
CONTINUOUS
370
18
10
2840.0
20
2025.0
30
0
11
2990.0
21
2025.0
31
0
0
LINE
8
DIM
6
CONTINUOUS
370
18
10
2840.0
20
2013.0
30
0
11
2840.0
21
2037.0
31
0
0
LINE
8
DIM
6
CONTINUOUS
370
18
10
2990.0
20
2013.0
30
0
11
2990.0
21
2037.0
31
0
0
TEXT
8
DIM
10
2786.85
20
2041.0
30
0
40
22
1
후면 여유 150 (C_rear)
0
LINE
8
PORT
6
CONTINUOUS
370
18
10
1967.5
20
2200.0
30
0
11
2037.5
21
2200.0
31
0
0
LINE
8
PORT
6
CONTINUOUS
370
18
10
2037.5
20
2200.0
30
0
11
2037.5
21
2245.0
31
0
0
LINE
8
PORT
6
CONTINUOUS
370
18
10
2037.5
20
2245.0
30
0
11
1967.5
21
2245.0
31
0
0
LINE
8
PORT
6
CONTINUOUS
370
18
10
1967.5
20
2245.0
30
0
11
1967.5
21
2200.0
31
0
0
LINE
8
LEADER
6
CONTINUOUS
370
18
10
1967.5
20
2245.0
30
0
11
1569.5
21
1847.0
31
0
0
LINE
8
LEADER
6
CONTINUOUS
370
18
10
1569.5
20
1847.0
30
0
11
1509.5
21
1847.0
31
0
0
TEXT
8
TEXT
10
1347.5
20
1847.0
30
0
40
20
1
케이블 관통 포트
0
LINE
8
LEADER
6
CONTINUOUS
370
18
10
2990.0
20
2200.0
30
0
11
3028.0
21
2238.0
31
0
0
LINE
8
LEADER
6
CONTINUOUS
370
18
10
3028.0
20
2238.0
30
0
11
3088.0
21
2238.0
31
0
0
TEXT
8
TEXT
10
3096.0
20
2238.0
30
0
40
20
1
받침 프레임 H100
0
CIRCLE
8
PORT
6
CONTINUOUS
370
18
10
2955.0
20
2400.0
30
0
40
22
0
LINE
8
LEADER
6
CONTINUOUS
370
18
10
2955.0
20
2400.0
30
0
11
3028.0
21
2473.0
31
0
0
LINE
8
LEADER
6
CONTINUOUS
370
18
10
3028.0
20
2473.0
30
0
11
3088.0
21
2473.0
31
0
0
TEXT
8
TEXT
10
3096.0
20
2473.0
30
0
40
20
1
공용 주입 포트 1구
0
CIRCLE
8
PORT
6
CONTINUOUS
370
18
10
1935.0
20
2715.0
30
0
40
22
0
LINE
8
LEADER
6
CONTINUOUS
370
18
10
1935.0
20
2715.0
30
0
11
1812.0
21
2838.0
31
0
0
LINE
8
LEADER
6
CONTINUOUS
370
18
10
1812.0
20
2838.0
30
0
11
1752.0
21
2838.0
31
0
0
TEXT
8
TEXT
10
1657.0
20
2838.0
30
0
40
20
1
배기 포트
0
LINE
8
OUTLINE
6
CONTINUOUS
370
25
10
447.0
20
247.0
30
0
11
1203.0
21
247.0
31
0
0
LINE
8
OUTLINE
6
CONTINUOUS
370
25
10
1203.0
20
247.0
30
0
11
1203.0
21
1343.0
31
0
0
LINE
8
OUTLINE
6
CONTINUOUS
370
25
10
1203.0
20
1343.0
30
0
11
447.0
21
1343.0
31
0
0
LINE
8
OUTLINE
6
CONTINUOUS
370
25
10
447.0
20
1343.0
30
0
11
447.0
21
247.0
31
0
0
LINE
8
EFFECTIVE
6
CONTINUOUS
370
18
10
450.0
20
250.0
30
0
11
1200.0
21
250.0
31
0
0
LINE
8
EFFECTIVE
6
CONTINUOUS
370
18
10
1200.0
20
250.0
30
0
11
1200.0
21
1340.0
31
0
0
LINE
8
EFFECTIVE
6
CONTINUOUS
370
18
10
1200.0
20
1340.0
30
0
11
450.0
21
1340.0
31
0
0
LINE
8
EFFECTIVE
6
CONTINUOUS
370
18
10
450.0
20
1340.0
30
0
11
450.0
21
250.0
31
0
0
LINE
8
ELECTRICAL_ENVELOPE
6
DASHED
370
25
10
675.0
20
720.0
30
0
11
975.0
21
720.0
31
0
0
LINE
8
ELECTRICAL_ENVELOPE
6
DASHED
370
25
10
975.0
20
720.0
30
0
11
975.0
21
870.0
31
0
0
LINE
8
ELECTRICAL_ENVELOPE
6
DASHED
370
25
10
975.0
20
870.0
30
0
11
675.0
21
870.0
31
0
0
LINE
8
ELECTRICAL_ENVELOPE
6
DASHED
370
25
10
675.0
20
870.0
30
0
11
675.0
21
720.0
31
0
0
LINE
8
PACK
6
CONTINUOUS
370
35
10
600.0
20
400.0
30
0
11
1050.0
21
400.0
31
0
0
LINE
8
PACK
6
CONTINUOUS
370
35
10
1050.0
20
400.0
30
0
11
1050.0
21
1190.0
31
0
0
LINE
8
PACK
6
CONTINUOUS
370
35
10
1050.0
20
1190.0
30
0
11
600.0
21
1190.0
31
0
0
LINE
8
PACK
6
CONTINUOUS
370
35
10
600.0
20
1190.0
30
0
11
600.0
21
400.0
31
0
0
LINE
8
SEN55
6
CONTINUOUS
370
25
10
798.85
20
1023.35
30
0
11
851.15
21
1023.35
31
0
0
LINE
8
SEN55
6
CONTINUOUS
370
25
10
851.15
20
1023.35
30
0
11
851.15
21
1066.65
31
0
0
LINE
8
SEN55
6
CONTINUOUS
370
25
10
851.15
20
1066.65
30
0
11
798.85
21
1066.65
31
0
0
LINE
8
SEN55
6
CONTINUOUS
370
25
10
798.85
20
1066.65
30
0
11
798.85
21
1023.35
31
0
0
LINE
8
LEADER
6
CONTINUOUS
370
18
10
825.0
20
1066.65
30
0
11
1136.35
21
1378.0
31
0
0
LINE
8
LEADER
6
CONTINUOUS
370
18
10
1136.35
20
1378.0
30
0
11
1196.35
21
1378.0
31
0
0
TEXT
8
TEXT
10
1204.35
20
1378.0
30
0
40
20
1
SEN55 후방
0
LINE
8
SEN55
6
CONTINUOUS
370
25
10
582.3436490538903
20
648.35
30
0
11
634.6436490538903
21
648.35
31
0
0
LINE
8
SEN55
6
CONTINUOUS
370
25
10
634.6436490538903
20
648.35
30
0
11
634.6436490538903
21
691.65
31
0
0
LINE
8
SEN55
6
CONTINUOUS
370
25
10
634.6436490538903
20
691.65
30
0
11
582.3436490538903
21
691.65
31
0
0
LINE
8
SEN55
6
CONTINUOUS
370
25
10
582.3436490538903
20
691.65
30
0
11
582.3436490538903
21
648.35
31
0
0
LINE
8
LEADER
6
CONTINUOUS
370
18
10
608.4936490538903
20
691.65
30
0
11
-127.85635094610973
21
1428.0
31
0
0
LINE
8
LEADER
6
CONTINUOUS
370
18
10
-127.85635094610973
20
1428.0
30
0
11
-187.85635094610973
21
1428.0
31
0
0
TEXT
8
TEXT
10
-322.8563509461097
20
1428.0
30
0
40
20
1
SEN55 전방좌
0
LINE
8
SEN55
6
CONTINUOUS
370
25
10
1015.3563509461097
20
648.35
30
0
11
1067.6563509461098
21
648.35
31
0
0
LINE
8
SEN55
6
CONTINUOUS
370
25
10
1067.6563509461098
20
648.35
30
0
11
1067.6563509461098
21
691.65
31
0
0
LINE
8
SEN55
6
CONTINUOUS
370
25
10
1067.6563509461098
20
691.65
30
0
11
1015.3563509461097
21
691.65
31
0
0
LINE
8
SEN55
6
CONTINUOUS
370
25
10
1015.3563509461097
20
691.65
30
0
11
1015.3563509461097
21
648.35
31
0
0
LINE
8
LEADER
6
CONTINUOUS
370
18
10
1041.5063509461097
20
691.65
30
0
11
1827.8563509461096
21
1478.0
31
0
0
LINE
8
LEADER
6
CONTINUOUS
370
18
10
1827.8563509461096
20
1478.0
30
0
11
1887.8563509461096
21
1478.0
31
0
0
TEXT
8
TEXT
10
1895.8563509461096
20
1478.0
30
0
40
20
1
SEN55 전방우
0
LINE
8
DIM
6
CONTINUOUS
370
18
10
608.4936490538903
20
-50.0
30
0
11
1041.5063509461097
21
-50.0
31
0
0
LINE
8
DIM
6
CONTINUOUS
370
18
10
608.4936490538903
20
-62.0
30
0
11
608.4936490538903
21
-38.0
31
0
0
LINE
8
DIM
6
CONTINUOUS
370
18
10
1041.5063509461097
20
-62.0
30
0
11
1041.5063509461097
21
-38.0
31
0
0
TEXT
8
DIM
10
690.8000000000001
20
-34.0
30
0
40
22
1
SEN55 정삼각형 한 변 433
0
TEXT
8
TEXT
10
450.0
20
1470.0
30
0
40
30
1
평면
0
LINE
8
DIM
6
CONTINUOUS
370
18
10
447.0
20
65.0
30
0
11
1203.0
21
65.0
31
0
0
LINE
8
DIM
6
CONTINUOUS
370
18
10
447.0
20
53.0
30
0
11
447.0
21
77.0
31
0
0
LINE
8
DIM
6
CONTINUOUS
370
18
10
1203.0
20
53.0
30
0
11
1203.0
21
77.0
31
0
0
TEXT
8
DIM
10
714.45
20
81.0
30
0
40
22
1
외형 폭 756 (W_out)
0
LINE
8
DIM
6
CONTINUOUS
370
18
10
600.0
20
120.0
30
0
11
1050.0
21
120.0
31
0
0
LINE
8
DIM
6
CONTINUOUS
370
18
10
600.0
20
108.0
30
0
11
600.0
21
132.0
31
0
0
LINE
8
DIM
6
CONTINUOUS
370
18
10
1050.0
20
108.0
30
0
11
1050.0
21
132.0
31
0
0
TEXT
8
DIM
10
775.5
20
136.0
30
0
40
22
1
팩 폭 450
0
LINE
8
DIM
6
CONTINUOUS
370
18
10
-50.0
20
247.0
30
0
11
-50.0
21
1343.0
31
0
0
LINE
8
DIM
6
CONTINUOUS
370
18
10
-62.0
20
247.0
30
0
11
-38.0
21
247.0
31
0
0
LINE
8
DIM
6
CONTINUOUS
370
18
10
-62.0
20
1343.0
30
0
11
-38.0
21
1343.0
31
0
0
TEXT
8
DIM
10
-322.2999999999999
20
795.0
30
0
40
22
1
외형 깊이 1096 (D_out)
0
LINE
8
DIM
6
CONTINUOUS
370
18
10
360.0
20
400.0
30
0
11
360.0
21
1190.0
31
0
0
LINE
8
DIM
6
CONTINUOUS
370
18
10
348.0
20
400.0
30
0
11
372.0
21
400.0
31
0
0
LINE
8
DIM
6
CONTINUOUS
370
18
10
348.0
20
1190.0
30
0
11
372.0
21
1190.0
31
0
0
TEXT
8
DIM
10
223.0
20
795.0
30
0
40
22
1
팩 깊이 790
0
LINE
8
HANDLE
6
CONTINUOUS
370
30
10
1073.0
20
247.0
30
0
11
1073.0
21
222.0
31
0
0
LINE
8
HANDLE
6
CONTINUOUS
370
30
10
1097.0
20
247.0
30
0
11
1097.0
21
222.0
31
0
0
LINE
8
HANDLE
6
CONTINUOUS
370
30
10
1073.0
20
222.0
30
0
11
1097.0
21
222.0
31
0
0
LINE
8
TITLE
6
CONTINUOUS
370
18
10
1900.0
20
240.0
30
0
11
2990.0
21
240.0
31
0
0
LINE
8
TITLE
6
CONTINUOUS
370
18
10
2990.0
20
240.0
30
0
11
2990.0
21
430.0
31
0
0
LINE
8
TITLE
6
CONTINUOUS
370
18
10
2990.0
20
430.0
30
0
11
1900.0
21
430.0
31
0
0
LINE
8
TITLE
6
CONTINUOUS
370
18
10
1900.0
20
430.0
30
0
11
1900.0
21
240.0
31
0
0
LINE
8
TITLE
6
CONTINUOUS
370
18
10
1900.0
20
310.0
30
0
11
2990.0
21
310.0
31
0
0
LINE
8
TITLE
6
CONTINUOUS
370
18
10
1900.0
20
370.0
30
0
11
2990.0
21
370.0
31
0
0
TEXT
8
TITLE
10
1915.0
20
385.0
30
0
40
25
1
지표 3 ESS 운용환경 모의 챔버 3면도
0
TEXT
8
TITLE
10
1915.0
20
328.0
30
0
40
22
1
도면번호: J3-CH-001  REV: M
0
TEXT
8
TITLE
10
1915.0
20
265.0
30
0
40
22
1
축척: NTS (치수값 mm)  단위: mm  작성일: 2026-09-07
0
ENDSEC
0
EOF
