0
SECTION
2
HEADER
9
$ACADVER
1
AC1021
9
$DWGCODEPAGE
3
UTF-8
0
ENDSEC
0
SECTION
2
TABLES
0
TABLE
2
LTYPE
70
2
0
LTYPE
2
CONTINUOUS
70
0
3
Solid line
72
65
73
0
40
0.0
0
LTYPE
2
DASHED
70
0
3
Dashed __ __
72
65
73
2
40
12.0
49
8.0
74
0
49
-4.0
74
0
0
ENDTAB
0
ENDSEC
0
SECTION
2
ENTITIES
0
LINE
8
SEN55
6
CONTINUOUS
370
25
10
300.0
20
1250.0
30
0
11
823.0
21
1250.0
31
0
0
LINE
8
SEN55
6
CONTINUOUS
370
25
10
823.0
20
1250.0
30
0
11
823.0
21
1683.0
31
0
0
LINE
8
SEN55
6
CONTINUOUS
370
25
10
823.0
20
1683.0
30
0
11
300.0
21
1683.0
31
0
0
LINE
8
SEN55
6
CONTINUOUS
370
25
10
300.0
20
1683.0
30
0
11
300.0
21
1250.0
31
0
0
CIRCLE
8
SEN55
6
CONTINUOUS
370
25
10
561.5
20
1466.5
30
0
40
95.0
0
TEXT
8
TEXT
10
300.0
20
1773.0
30
0
40
28
1
배출구측 정면
0
LINE
8
DIM
6
CONTINUOUS
370
18
10
300.0
20
1175.0
30
0
11
823.0
21
1175.0
31
0
0
LINE
8
DIM
6
CONTINUOUS
370
18
10
300.0
20
1163.0
30
0
11
300.0
21
1187.0
31
0
0
LINE
8
DIM
6
CONTINUOUS
370
18
10
823.0
20
1163.0
30
0
11
823.0
21
1187.0
31
0
0
TEXT
8
DIM
10
504.85
20
1191.0
30
0
40
22
1
52.3 ±0.4
0
LINE
8
DIM
6
CONTINUOUS
370
18
10
225.0
20
1250.0
30
0
11
225.0
21
1683.0
31
0
0
LINE
8
DIM
6
CONTINUOUS
370
18
10
213.0
20
1250.0
30
0
11
237.0
21
1250.0
31
0
0
LINE
8
DIM
6
CONTINUOUS
370
18
10
213.0
20
1683.0
30
0
11
237.0
21
1683.0
31
0
0
TEXT
8
DIM
10
3.30000000000004
20
1466.5
30
0
40
22
1
43.3 (+0.2/-0.6)
0
LINE
8
LEADER
6
CONTINUOUS
370
18
10
656.5
20
1466.5
30
0
11
858.0
21
1668.0
31
0
0
LINE
8
LEADER
6
CONTINUOUS
370
18
10
858.0
20
1668.0
30
0
11
918.0
21
1668.0
31
0
0
TEXT
8
TEXT
10
926.0
20
1668.0
30
0
40
20
1
팬 개구 Ø19 (참조)
0
LINE
8
SEN55
6
CONTINUOUS
370
25
10
1150.0
20
1250.0
30
0
11
1373.0
21
1250.0
31
0
0
LINE
8
SEN55
6
CONTINUOUS
370
25
10
1373.0
20
1250.0
30
0
11
1373.0
21
1683.0
31
0
0
LINE
8
SEN55
6
CONTINUOUS
370
25
10
1373.0
20
1683.0
30
0
11
1150.0
21
1683.0
31
0
0
LINE
8
SEN55
6
CONTINUOUS
370
25
10
1150.0
20
1683.0
30
0
11
1150.0
21
1250.0
31
0
0
LINE
8
CONNECTOR
6
CONTINUOUS
370
18
10
1373.0
20
1250.0
30
0
11
1373.0
21
1683.0
31
0
0
TEXT
8
TEXT
10
1150.0
20
1773.0
30
0
40
28
1
측면
0
LINE
8
DIM
6
CONTINUOUS
370
18
10
1150.0
20
1175.0
30
0
11
1373.0
21
1175.0
31
0
0
LINE
8
DIM
6
CONTINUOUS
370
18
10
1150.0
20
1163.0
30
0
11
1150.0
21
1187.0
31
0
0
LINE
8
DIM
6
CONTINUOUS
370
18
10
1373.0
20
1163.0
30
0
11
1373.0
21
1187.0
31
0
0
TEXT
8
DIM
10
1204.85
20
1191.0
30
0
40
22
1
22.3 ±0.4
0
LINE
8
DIM
6
CONTINUOUS
370
18
10
1075.0
20
1250.0
30
0
11
1075.0
21
1382.0
31
0
0
LINE
8
DIM
6
CONTINUOUS
370
18
10
1063.0
20
1250.0
30
0
11
1087.0
21
1250.0
31
0
0
LINE
8
DIM
6
CONTINUOUS
370
18
10
1063.0
20
1382.0
30
0
11
1087.0
21
1382.0
31
0
0
TEXT
8
DIM
10
864.3000000000001
20
1316.0
30
0
40
22
1
측면 폭 13.2 ±0.4
0
LINE
8
LEADER
6
CONTINUOUS
370
18
10
1373.0
20
1518.46
30
0
11
1408.0
21
1553.46
31
0
0
LINE
8
LEADER
6
CONTINUOUS
370
18
10
1408.0
20
1553.46
30
0
11
1468.0
21
1553.46
31
0
0
TEXT
8
TEXT
10
1476.0
20
1553.46
30
0
40
20
1
커넥터 구역: ACES 51451-0060N-001
0
LINE
8
LEADER
6
CONTINUOUS
370
18
10
1373.0
20
1457.84
30
0
11
1458.0
21
1372.84
31
0
0
LINE
8
LEADER
6
CONTINUOUS
370
18
10
1458.0
20
1372.84
30
0
11
1518.0
21
1372.84
31
0
0
TEXT
8
TEXT
10
1526.0
20
1372.84
30
0
40
20
1
위치: 공기 배출구 인접 측면
0
LINE
8
SEN55
6
CONTINUOUS
370
25
10
300.0
20
450.0
30
0
11
823.0
21
450.0
31
0
0
LINE
8
SEN55
6
CONTINUOUS
370
25
10
823.0
20
450.0
30
0
11
823.0
21
883.0
31
0
0
LINE
8
SEN55
6
CONTINUOUS
370
25
10
823.0
20
883.0
30
0
11
300.0
21
883.0
31
0
0
LINE
8
SEN55
6
CONTINUOUS
370
25
10
300.0
20
883.0
30
0
11
300.0
21
450.0
31
0
0
LINE
8
LABEL
6
CONTINUOUS
370
18
10
471.5
20
763.0
30
0
11
651.5
21
763.0
31
0
0
LINE
8
LABEL
6
CONTINUOUS
370
18
10
651.5
20
763.0
30
0
11
651.5
21
883.0
31
0
0
LINE
8
LABEL
6
CONTINUOUS
370
18
10
651.5
20
883.0
30
0
11
471.5
21
883.0
31
0
0
LINE
8
LABEL
6
CONTINUOUS
370
18
10
471.5
20
883.0
30
0
11
471.5
21
763.0
31
0
0
TEXT
8
TEXT
10
300.0
20
973.0
30
0
40
28
1
배출구 반대쪽 면
0
LINE
8
LEADER
6
CONTINUOUS
370
18
10
651.5
20
823.0
30
0
11
858.0
21
616.5
31
0
0
LINE
8
LEADER
6
CONTINUOUS
370
18
10
858.0
20
616.5
30
0
11
918.0
21
616.5
31
0
0
TEXT
8
TEXT
10
926.0
20
616.5
30
0
40
20
1
라벨 18 x 12
0
TEXT
8
NOTE
10
1150.0
20
810.0
30
0
40
28
1
주기
0
TEXT
8
NOTE
10
1150.0
20
772.0
30
0
40
18
1
1. 공기 흡입구 위치는 데이터시트 미상이며 이 도면에 표시하지 않는다.
0
TEXT
8
NOTE
10
1150.0
20
734.0
30
0
40
18
1
2. 동작 권장 10 ~ 40 °C / 20 ~ 80 %RH; 절대 -10 ~ 50 °C / 0 ~ 90 %RH 비결로.
0
TEXT
8
NOTE
10
1150.0
20
696.0
30
0
40
18
1
3. 결로 조건에 어떤 경우에도 노출 금지.
0
TEXT
8
NOTE
10
1150.0
20
658.0
30
0
40
18
1
4. 시험 조건 ⑤ 목표 60 ℃는 절대 최대 50 °C 초과. 이 상태로 수행하면 소자가 손상된다.
0
TEXT
8
NOTE
10
1150.0
20
620.0
30
0
40
18
1
5. I2C 주소 0x69 고정. 3대는 멀티플렉서 또는 버스 분리 필요(미결정).
0
TEXT
8
NOTE
10
1150.0
20
582.0
30
0
40
18
1
6. 배선 10 cm 미만 권장 또는 차폐 케이블 사용.
0
TEXT
8
NOTE
10
1150.0
20
544.0
30
0
40
18
1
7. 금속 실드는 내부 GND와 연결되며 등전위 미확보 시 과열 위험.
0
TEXT
8
NOTE
10
1150.0
20
506.0
30
0
40
18
1
8. 측정 주기 1 Hz 고정.
0
TEXT
8
NOTE
10
1150.0
20
468.0
30
0
40
18
1
9. 팬 자동 청소 기본 1주. 전원 차단 시 카운터 리셋되므로 주 1회 수동 실행.
0
TEXT
8
NOTE
10
1150.0
20
430.0
30
0
40
18
1
10. 품번 SEN55-SDN-T, Article Number 3.000.593, 무게 36.4 g ±10 %.
0
LINE
8
TITLE
6
CONTINUOUS
370
18
10
1150.0
20
100.0
30
0
11
2100.0
21
100.0
31
0
0
LINE
8
TITLE
6
CONTINUOUS
370
18
10
2100.0
20
100.0
30
0
11
2100.0
21
320.0
31
0
0
LINE
8
TITLE
6
CONTINUOUS
370
18
10
2100.0
20
320.0
30
0
11
1150.0
21
320.0
31
0
0
LINE
8
TITLE
6
CONTINUOUS
370
18
10
1150.0
20
320.0
30
0
11
1150.0
21
100.0
31
0
0
LINE
8
TITLE
6
CONTINUOUS
370
18
10
1150.0
20
175.0
30
0
11
2100.0
21
175.0
31
0
0
LINE
8
TITLE
6
CONTINUOUS
370
18
10
1150.0
20
245.0
30
0
11
2100.0
21
245.0
31
0
0
TEXT
8
TITLE
10
1165.0
20
265.0
30
0
40
25
1
SEN55 환경 센서 모듈 상세도
0
TEXT
8
TITLE
10
1165.0
20
198.0
30
0
40
22
1
도면번호: J3-SN-001  REV: A
0
TEXT
8
TITLE
10
1165.0
20
130.0
30
0
40
22
1
축척: NTS (치수값 mm)  단위: mm  작성일: 2026-09-02
0
ENDSEC
0
EOF
