# 단위 mm, Z-up; 원점은 내부 바닥 도어측 좌측 모서리
mtllib chamber.mtl
v -3.000000 -3.000000 -3.000000
v 753.000000 -3.000000 -3.000000
v 753.000000 1093.000000 -3.000000
v -3.000000 1093.000000 -3.000000
v -3.000000 -3.000000 753.000000
v -3.000000 1093.000000 753.000000
v 753.000000 1093.000000 753.000000
v 753.000000 -3.000000 753.000000
v -3.000000 -3.000000 -3.000000
v -3.000000 -3.000000 753.000000
v 753.000000 -3.000000 753.000000
v 753.000000 -3.000000 -3.000000
v 753.000000 1093.000000 -3.000000
v 753.000000 1093.000000 753.000000
v -3.000000 1093.000000 753.000000
v -3.000000 1093.000000 -3.000000
v -3.000000 1093.000000 -3.000000
v -3.000000 1093.000000 753.000000
v -3.000000 -3.000000 753.000000
v -3.000000 -3.000000 -3.000000
v 753.000000 -3.000000 -3.000000
v 753.000000 -3.000000 753.000000
v 753.000000 1093.000000 753.000000
v 753.000000 1093.000000 -3.000000
v 0.000000 0.000000 0.000000
v 750.000000 0.000000 0.000000
v 750.000000 1090.000000 0.000000
v 0.000000 1090.000000 0.000000
v 0.000000 0.000000 750.000000
v 0.000000 1090.000000 750.000000
v 750.000000 1090.000000 750.000000
v 750.000000 0.000000 750.000000
v 0.000000 0.000000 0.000000
v 0.000000 0.000000 750.000000
v 750.000000 0.000000 750.000000
v 750.000000 0.000000 0.000000
v 750.000000 1090.000000 0.000000
v 750.000000 1090.000000 750.000000
v 0.000000 1090.000000 750.000000
v 0.000000 1090.000000 0.000000
v 0.000000 1090.000000 0.000000
v 0.000000 1090.000000 750.000000
v 0.000000 0.000000 750.000000
v 0.000000 0.000000 0.000000
v 750.000000 0.000000 0.000000
v 750.000000 0.000000 750.000000
v 750.000000 1090.000000 750.000000
v 750.000000 1090.000000 0.000000
v 0.000000 0.000000 0.000000
v 750.000000 0.000000 0.000000
v 750.000000 1090.000000 0.000000
v 0.000000 1090.000000 0.000000
v 0.000000 0.000000 100.000000
v 0.000000 1090.000000 100.000000
v 750.000000 1090.000000 100.000000
v 750.000000 0.000000 100.000000
v 0.000000 0.000000 0.000000
v 0.000000 0.000000 100.000000
v 750.000000 0.000000 100.000000
v 750.000000 0.000000 0.000000
v 750.000000 1090.000000 0.000000
v 750.000000 1090.000000 100.000000
v 0.000000 1090.000000 100.000000
v 0.000000 1090.000000 0.000000
v 0.000000 1090.000000 0.000000
v 0.000000 1090.000000 100.000000
v 0.000000 0.000000 100.000000
v 0.000000 0.000000 0.000000
v 750.000000 0.000000 0.000000
v 750.000000 0.000000 100.000000
v 750.000000 1090.000000 100.000000
v 750.000000 1090.000000 0.000000
v 150.000000 150.000000 100.000000
v 600.000000 150.000000 100.000000
v 600.000000 940.000000 100.000000
v 150.000000 940.000000 100.000000
v 150.000000 150.000000 350.000000
v 150.000000 940.000000 350.000000
v 600.000000 940.000000 350.000000
v 600.000000 150.000000 350.000000
v 150.000000 150.000000 100.000000
v 150.000000 150.000000 350.000000
v 600.000000 150.000000 350.000000
v 600.000000 150.000000 100.000000
v 600.000000 940.000000 100.000000
v 600.000000 940.000000 350.000000
v 150.000000 940.000000 350.000000
v 150.000000 940.000000 100.000000
v 150.000000 940.000000 100.000000
v 150.000000 940.000000 350.000000
v 150.000000 150.000000 350.000000
v 150.000000 150.000000 100.000000
v 600.000000 150.000000 100.000000
v 600.000000 150.000000 350.000000
v 600.000000 940.000000 350.000000
v 600.000000 940.000000 100.000000
v 225.000000 470.000000 753.000000
v 525.000000 470.000000 753.000000
v 525.000000 620.000000 753.000000
v 225.000000 620.000000 753.000000
v 225.000000 470.000000 873.000000
v 225.000000 620.000000 873.000000
v 525.000000 620.000000 873.000000
v 525.000000 470.000000 873.000000
v 225.000000 470.000000 753.000000
v 225.000000 470.000000 873.000000
v 525.000000 470.000000 873.000000
v 525.000000 470.000000 753.000000
v 525.000000 620.000000 753.000000
v 525.000000 620.000000 873.000000
v 225.000000 620.000000 873.000000
v 225.000000 620.000000 753.000000
v 225.000000 620.000000 753.000000
v 225.000000 620.000000 873.000000
v 225.000000 470.000000 873.000000
v 225.000000 470.000000 753.000000
v 525.000000 470.000000 753.000000
v 525.000000 470.000000 873.000000
v 525.000000 620.000000 873.000000
v 525.000000 620.000000 753.000000
v 75.000000 0.750000 0.000000
v 675.000000 0.750000 0.000000
v 675.000000 0.750000 500.000000
v 75.000000 0.750000 500.000000
v 175.000000 0.750000 150.000000
v 575.000000 0.750000 150.000000
v 575.000000 0.750000 450.000000
v 175.000000 0.750000 450.000000
v 633.125000 0.750000 175.000000
v 636.875000 0.750000 175.000000
v 636.875000 0.750000 325.000000
v 633.125000 0.750000 325.000000
v 749.250000 1015.000000 281.250000
v 749.250000 1052.500000 281.250000
v 749.250000 1052.500000 318.750000
v 749.250000 1015.000000 318.750000
v 0.750000 37.500000 596.250000
v 0.750000 75.000000 596.250000
v 0.750000 75.000000 633.750000
v 0.750000 37.500000 633.750000
v 749.250000 308.250000 100.000000
v 749.250000 345.750000 100.000000
v 749.250000 345.750000 137.500000
v 749.250000 308.250000 137.500000
v 348.850000 773.350000 727.700000
v 401.150000 773.350000 727.700000
v 401.150000 816.650000 727.700000
v 348.850000 816.650000 727.700000
v 348.850000 773.350000 750.000000
v 348.850000 816.650000 750.000000
v 401.150000 816.650000 750.000000
v 401.150000 773.350000 750.000000
v 348.850000 773.350000 727.700000
v 348.850000 773.350000 750.000000
v 401.150000 773.350000 750.000000
v 401.150000 773.350000 727.700000
v 401.150000 816.650000 727.700000
v 401.150000 816.650000 750.000000
v 348.850000 816.650000 750.000000
v 348.850000 816.650000 727.700000
v 348.850000 816.650000 727.700000
v 348.850000 816.650000 750.000000
v 348.850000 773.350000 750.000000
v 348.850000 773.350000 727.700000
v 401.150000 773.350000 727.700000
v 401.150000 773.350000 750.000000
v 401.150000 816.650000 750.000000
v 401.150000 816.650000 727.700000
v 132.343649 398.350000 727.700000
v 184.643649 398.350000 727.700000
v 184.643649 441.650000 727.700000
v 132.343649 441.650000 727.700000
v 132.343649 398.350000 750.000000
v 132.343649 441.650000 750.000000
v 184.643649 441.650000 750.000000
v 184.643649 398.350000 750.000000
v 132.343649 398.350000 727.700000
v 132.343649 398.350000 750.000000
v 184.643649 398.350000 750.000000
v 184.643649 398.350000 727.700000
v 184.643649 441.650000 727.700000
v 184.643649 441.650000 750.000000
v 132.343649 441.650000 750.000000
v 132.343649 441.650000 727.700000
v 132.343649 441.650000 727.700000
v 132.343649 441.650000 750.000000
v 132.343649 398.350000 750.000000
v 132.343649 398.350000 727.700000
v 184.643649 398.350000 727.700000
v 184.643649 398.350000 750.000000
v 184.643649 441.650000 750.000000
v 184.643649 441.650000 727.700000
v 565.356351 398.350000 727.700000
v 617.656351 398.350000 727.700000
v 617.656351 441.650000 727.700000
v 565.356351 441.650000 727.700000
v 565.356351 398.350000 750.000000
v 565.356351 441.650000 750.000000
v 617.656351 441.650000 750.000000
v 617.656351 398.350000 750.000000
v 565.356351 398.350000 727.700000
v 565.356351 398.350000 750.000000
v 617.656351 398.350000 750.000000
v 617.656351 398.350000 727.700000
v 617.656351 441.650000 727.700000
v 617.656351 441.650000 750.000000
v 565.356351 441.650000 750.000000
v 565.356351 441.650000 727.700000
v 565.356351 441.650000 727.700000
v 565.356351 441.650000 750.000000
v 565.356351 398.350000 750.000000
v 565.356351 398.350000 727.700000
v 617.656351 398.350000 727.700000
v 617.656351 398.350000 750.000000
v 617.656351 441.650000 750.000000
v 617.656351 441.650000 727.700000
v 0.000000 0.000000 0.000000
v 120.000000 0.000000 0.000000
v 120.000000 9.000000 0.000000
v 0.000000 9.000000 0.000000
v 0.000000 0.000000 9.000000
v 0.000000 9.000000 9.000000
v 120.000000 9.000000 9.000000
v 120.000000 0.000000 9.000000
v 0.000000 0.000000 0.000000
v 0.000000 0.000000 9.000000
v 120.000000 0.000000 9.000000
v 120.000000 0.000000 0.000000
v 120.000000 9.000000 0.000000
v 120.000000 9.000000 9.000000
v 0.000000 9.000000 9.000000
v 0.000000 9.000000 0.000000
v 0.000000 9.000000 0.000000
v 0.000000 9.000000 9.000000
v 0.000000 0.000000 9.000000
v 0.000000 0.000000 0.000000
v 120.000000 0.000000 0.000000
v 120.000000 0.000000 9.000000
v 120.000000 9.000000 9.000000
v 120.000000 9.000000 0.000000
v 0.000000 0.000000 0.000000
v 9.000000 0.000000 0.000000
v 9.000000 120.000000 0.000000
v 0.000000 120.000000 0.000000
v 0.000000 0.000000 9.000000
v 0.000000 120.000000 9.000000
v 9.000000 120.000000 9.000000
v 9.000000 0.000000 9.000000
v 0.000000 0.000000 0.000000
v 0.000000 0.000000 9.000000
v 9.000000 0.000000 9.000000
v 9.000000 0.000000 0.000000
v 9.000000 120.000000 0.000000
v 9.000000 120.000000 9.000000
v 0.000000 120.000000 9.000000
v 0.000000 120.000000 0.000000
v 0.000000 120.000000 0.000000
v 0.000000 120.000000 9.000000
v 0.000000 0.000000 9.000000
v 0.000000 0.000000 0.000000
v 9.000000 0.000000 0.000000
v 9.000000 0.000000 9.000000
v 9.000000 120.000000 9.000000
v 9.000000 120.000000 0.000000
v 0.000000 0.000000 0.000000
v 9.000000 0.000000 0.000000
v 9.000000 9.000000 0.000000
v 0.000000 9.000000 0.000000
v 0.000000 0.000000 120.000000
v 0.000000 9.000000 120.000000
v 9.000000 9.000000 120.000000
v 9.000000 0.000000 120.000000
v 0.000000 0.000000 0.000000
v 0.000000 0.000000 120.000000
v 9.000000 0.000000 120.000000
v 9.000000 0.000000 0.000000
v 9.000000 9.000000 0.000000
v 9.000000 9.000000 120.000000
v 0.000000 9.000000 120.000000
v 0.000000 9.000000 0.000000
v 0.000000 9.000000 0.000000
v 0.000000 9.000000 120.000000
v 0.000000 0.000000 120.000000
v 0.000000 0.000000 0.000000
v 9.000000 0.000000 0.000000
v 9.000000 0.000000 120.000000
v 9.000000 9.000000 120.000000
v 9.000000 9.000000 0.000000
g outer_enclosure_shell
usemtl outer_shell
f 1 2 3 4
f 5 6 7 8
f 9 10 11 12
f 13 14 15 16
f 17 18 19 20
f 21 22 23 24
g internal_effective_volume_surface
usemtl effective_volume
f 25 26 27 28
f 29 30 31 32
f 33 34 35 36
f 37 38 39 40
f 41 42 43 44
f 45 46 47 48
g floor_support_frame_concept
usemtl floor_frame
f 49 50 51 52
f 53 54 55 56
f 57 58 59 60
f 61 62 63 64
f 65 66 67 68
f 69 70 71 72
g pack_01
usemtl pack
f 73 74 75 76
f 77 78 79 80
f 81 82 83 84
f 85 86 87 88
f 89 90 91 92
f 93 94 95 96
g electrical_envelope_exterior
usemtl electrical_envelope
f 97 98 99 100
f 101 102 103 104
f 105 106 107 108
f 109 110 111 112
f 113 114 115 116
f 117 118 119 120
g door_opening
usemtl door
f 121 122 123 124
g viewing_window_fixed
usemtl window
f 125 126 127 128
g door_handle
usemtl handle
f 129 130 131 132
g common_inlet_port_diameter_dependent
usemtl inlet_dependent
f 133 134 135 136
g exhaust_port_diameter_dependent
usemtl exhaust_dependent
f 137 138 139 140
g cable_entry_port_diameter_dependent
usemtl cable_dependent
f 141 142 143 144
g sensor_ceiling_rear_concept
usemtl sensor_concept
f 145 146 147 148
f 149 150 151 152
f 153 154 155 156
f 157 158 159 160
f 161 162 163 164
f 165 166 167 168
g sensor_ceiling_front_left_concept
usemtl sensor_concept
f 169 170 171 172
f 173 174 175 176
f 177 178 179 180
f 181 182 183 184
f 185 186 187 188
f 189 190 191 192
g sensor_ceiling_front_right_concept
usemtl sensor_concept
f 193 194 195 196
f 197 198 199 200
f 201 202 203 204
f 205 206 207 208
f 209 210 211 212
f 213 214 215 216
g axis_X_width
usemtl axis_x
f 217 218 219 220
f 221 222 223 224
f 225 226 227 228
f 229 230 231 232
f 233 234 235 236
f 237 238 239 240
g axis_Y_depth
usemtl axis_y
f 241 242 243 244
f 245 246 247 248
f 249 250 251 252
f 253 254 255 256
f 257 258 259 260
f 261 262 263 264
g axis_Z_height
usemtl axis_z
f 265 266 267 268
f 269 270 271 272
f 273 274 275 276
f 277 278 279 280
f 281 282 283 284
f 285 286 287 288
