ISO-10303-21;
HEADER;
FILE_DESCRIPTION(('Open CASCADE Model'),'2;1');
FILE_NAME('door_handle','2000-01-01T00:00:00',('Author'),('Open CASCADE'
    ),'Open CASCADE STEP processor 7.9','cadgen','Unknown');
FILE_SCHEMA(('AUTOMOTIVE_DESIGN { 1 0 10303 214 1 1 1 1 }'));
ENDSEC;
DATA;
#1 = APPLICATION_PROTOCOL_DEFINITION('international standard',
  'automotive_design',2000,#2);
#2 = APPLICATION_CONTEXT(
  'core data for automotive mechanical design processes');
#3 = SHAPE_DEFINITION_REPRESENTATION(#4,#10);
#4 = PRODUCT_DEFINITION_SHAPE('','',#5);
#5 = PRODUCT_DEFINITION('design','',#6,#9);
#6 = PRODUCT_DEFINITION_FORMATION('','',#7);
#7 = PRODUCT('door_handle','door_handle','',(#8));
#8 = PRODUCT_CONTEXT('',#2,'mechanical');
#9 = PRODUCT_DEFINITION_CONTEXT('part definition',#2,'design');
#10 = SHAPE_REPRESENTATION('',(#11,#15),#19);
#11 = AXIS2_PLACEMENT_3D('',#12,#13,#14);
#12 = CARTESIAN_POINT('',(0.,0.,0.));
#13 = DIRECTION('',(0.,0.,1.));
#14 = DIRECTION('',(1.,0.,0.));
#15 = AXIS2_PLACEMENT_3D('',#16,#17,#18);
#16 = CARTESIAN_POINT('',(0.,0.,0.));
#17 = DIRECTION('',(0.,0.,1.));
#18 = DIRECTION('',(1.,0.,0.));
#19 = ( GEOMETRIC_REPRESENTATION_CONTEXT(3) 
GLOBAL_UNCERTAINTY_ASSIGNED_CONTEXT((#23)) GLOBAL_UNIT_ASSIGNED_CONTEXT(
(#20,#21,#22)) REPRESENTATION_CONTEXT('Context #1',
  '3D Context with UNIT and UNCERTAINTY') );
#20 = ( LENGTH_UNIT() NAMED_UNIT(*) SI_UNIT(.MILLI.,.METRE.) );
#21 = ( NAMED_UNIT(*) PLANE_ANGLE_UNIT() SI_UNIT($,.RADIAN.) );
#22 = ( NAMED_UNIT(*) SI_UNIT($,.STERADIAN.) SOLID_ANGLE_UNIT() );
#23 = UNCERTAINTY_MEASURE_WITH_UNIT(LENGTH_MEASURE(2.E-07),#20,
  'distance_accuracy_value','confusion accuracy');
#24 = PRODUCT_RELATED_PRODUCT_CATEGORY('part',$,(#7));
#25 = SHAPE_DEFINITION_REPRESENTATION(#26,#32);
#26 = PRODUCT_DEFINITION_SHAPE('','',#27);
#27 = PRODUCT_DEFINITION('design','',#28,#31);
#28 = PRODUCT_DEFINITION_FORMATION('','',#29);
#29 = PRODUCT('door_handle','door_handle','',(#30));
#30 = PRODUCT_CONTEXT('',#2,'mechanical');
#31 = PRODUCT_DEFINITION_CONTEXT('part definition',#2,'design');
#32 = ADVANCED_BREP_SHAPE_REPRESENTATION('',(#11,#33),#1095);
#33 = MANIFOLD_SOLID_BREP('',#34);
#34 = CLOSED_SHELL('',(#35,#969,#973,#977,#1032,#1087,#1091));
#35 = ADVANCED_FACE('',(#36,#123,#546),#49,.T.);
#36 = FACE_BOUND('',#37,.T.);
#37 = EDGE_LOOP('',(#38,#72,#95,#122));
#38 = ORIENTED_EDGE('',*,*,#39,.F.);
#39 = EDGE_CURVE('',#40,#40,#42,.T.);
#40 = VERTEX_POINT('',#41);
#41 = CARTESIAN_POINT('',(66.,-82.,304.));
#42 = SURFACE_CURVE('',#43,(#48,#60),.PCURVE_S1.);
#43 = CIRCLE('',#44,6.);
#44 = AXIS2_PLACEMENT_3D('',#45,#46,#47);
#45 = CARTESIAN_POINT('',(60.,-82.,304.));
#46 = DIRECTION('',(0.,0.,1.));
#47 = DIRECTION('',(1.,0.,0.));
#48 = PCURVE('',#49,#54);
#49 = CYLINDRICAL_SURFACE('',#50,6.);
#50 = AXIS2_PLACEMENT_3D('',#51,#52,#53);
#51 = CARTESIAN_POINT('',(60.,-82.,156.));
#52 = DIRECTION('',(0.,0.,1.));
#53 = DIRECTION('',(1.,0.,0.));
#54 = DEFINITIONAL_REPRESENTATION('',(#55),#59);
#55 = LINE('',#56,#57);
#56 = CARTESIAN_POINT('',(0.,148.));
#57 = VECTOR('',#58,1.);
#58 = DIRECTION('',(1.,0.));
#59 = ( GEOMETRIC_REPRESENTATION_CONTEXT(2) 
PARAMETRIC_REPRESENTATION_CONTEXT() REPRESENTATION_CONTEXT('2D SPACE',''
  ) );
#60 = PCURVE('',#61,#66);
#61 = PLANE('',#62);
#62 = AXIS2_PLACEMENT_3D('',#63,#64,#65);
#63 = CARTESIAN_POINT('',(60.,-82.,304.));
#64 = DIRECTION('',(0.,0.,1.));
#65 = DIRECTION('',(1.,0.,0.));
#66 = DEFINITIONAL_REPRESENTATION('',(#67),#71);
#67 = CIRCLE('',#68,6.);
#68 = AXIS2_PLACEMENT_2D('',#69,#70);
#69 = CARTESIAN_POINT('',(0.,0.));
#70 = DIRECTION('',(1.,0.));
#71 = ( GEOMETRIC_REPRESENTATION_CONTEXT(2) 
PARAMETRIC_REPRESENTATION_CONTEXT() REPRESENTATION_CONTEXT('2D SPACE',''
  ) );
#72 = ORIENTED_EDGE('',*,*,#73,.F.);
#73 = EDGE_CURVE('',#74,#40,#76,.T.);
#74 = VERTEX_POINT('',#75);
#75 = CARTESIAN_POINT('',(66.,-82.,156.));
#76 = SEAM_CURVE('',#77,(#81,#88),.PCURVE_S1.);
#77 = LINE('',#78,#79);
#78 = CARTESIAN_POINT('',(66.,-82.,156.));
#79 = VECTOR('',#80,1.);
#80 = DIRECTION('',(0.,0.,1.));
#81 = PCURVE('',#49,#82);
#82 = DEFINITIONAL_REPRESENTATION('',(#83),#87);
#83 = LINE('',#84,#85);
#84 = CARTESIAN_POINT('',(6.28318530718,0.));
#85 = VECTOR('',#86,1.);
#86 = DIRECTION('',(0.,1.));
#87 = ( GEOMETRIC_REPRESENTATION_CONTEXT(2) 
PARAMETRIC_REPRESENTATION_CONTEXT() REPRESENTATION_CONTEXT('2D SPACE',''
  ) );
#88 = PCURVE('',#49,#89);
#89 = DEFINITIONAL_REPRESENTATION('',(#90),#94);
#90 = LINE('',#91,#92);
#91 = CARTESIAN_POINT('',(0.,0.));
#92 = VECTOR('',#93,1.);
#93 = DIRECTION('',(0.,1.));
#94 = ( GEOMETRIC_REPRESENTATION_CONTEXT(2) 
PARAMETRIC_REPRESENTATION_CONTEXT() REPRESENTATION_CONTEXT('2D SPACE',''
  ) );
#95 = ORIENTED_EDGE('',*,*,#96,.T.);
#96 = EDGE_CURVE('',#74,#74,#97,.T.);
#97 = SURFACE_CURVE('',#98,(#103,#110),.PCURVE_S1.);
#98 = CIRCLE('',#99,6.);
#99 = AXIS2_PLACEMENT_3D('',#100,#101,#102);
#100 = CARTESIAN_POINT('',(60.,-82.,156.));
#101 = DIRECTION('',(0.,0.,1.));
#102 = DIRECTION('',(1.,0.,0.));
#103 = PCURVE('',#49,#104);
#104 = DEFINITIONAL_REPRESENTATION('',(#105),#109);
#105 = LINE('',#106,#107);
#106 = CARTESIAN_POINT('',(0.,0.));
#107 = VECTOR('',#108,1.);
#108 = DIRECTION('',(1.,0.));
#109 = ( GEOMETRIC_REPRESENTATION_CONTEXT(2) 
PARAMETRIC_REPRESENTATION_CONTEXT() REPRESENTATION_CONTEXT('2D SPACE',''
  ) );
#110 = PCURVE('',#111,#116);
#111 = PLANE('',#112);
#112 = AXIS2_PLACEMENT_3D('',#113,#114,#115);
#113 = CARTESIAN_POINT('',(60.,-82.,156.));
#114 = DIRECTION('',(0.,0.,1.));
#115 = DIRECTION('',(1.,0.,0.));
#116 = DEFINITIONAL_REPRESENTATION('',(#117),#121);
#117 = CIRCLE('',#118,6.);
#118 = AXIS2_PLACEMENT_2D('',#119,#120);
#119 = CARTESIAN_POINT('',(0.,0.));
#120 = DIRECTION('',(1.,0.));
#121 = ( GEOMETRIC_REPRESENTATION_CONTEXT(2) 
PARAMETRIC_REPRESENTATION_CONTEXT() REPRESENTATION_CONTEXT('2D SPACE',''
  ) );
#122 = ORIENTED_EDGE('',*,*,#73,.T.);
#123 = FACE_BOUND('',#124,.T.);
#124 = EDGE_LOOP('',(#125));
#125 = ORIENTED_EDGE('',*,*,#126,.F.);
#126 = EDGE_CURVE('',#127,#127,#129,.T.);
#127 = VERTEX_POINT('',#128);
#128 = CARTESIAN_POINT('',(60.,-76.,171.));
#129 = SURFACE_CURVE('',#130,(#265,#403),.PCURVE_S1.);
#130 = B_SPLINE_CURVE_WITH_KNOTS('',7,(#131,#132,#133,#134,#135,#136,
    #137,#138,#139,#140,#141,#142,#143,#144,#145,#146,#147,#148,#149,
    #150,#151,#152,#153,#154,#155,#156,#157,#158,#159,#160,#161,#162,
    #163,#164,#165,#166,#167,#168,#169,#170,#171,#172,#173,#174,#175,
    #176,#177,#178,#179,#180,#181,#182,#183,#184,#185,#186,#187,#188,
    #189,#190,#191,#192,#193,#194,#195,#196,#197,#198,#199,#200,#201,
    #202,#203,#204,#205,#206,#207,#208,#209,#210,#211,#212,#213,#214,
    #215,#216,#217,#218,#219,#220,#221,#222,#223,#224,#225,#226,#227,
    #228,#229,#230,#231,#232,#233,#234,#235,#236,#237,#238,#239,#240,
    #241,#242,#243,#244,#245,#246,#247,#248,#249,#250,#251,#252,#253,
    #254,#255,#256,#257,#258,#259,#260,#261,#262,#263,#264),
  .UNSPECIFIED.,.T.,.F.,(8,6,6,6,6,6,6,6,6,6,6,6,6,6,6,6,6,6,6,6,6,6,8),
  (0.,4.954727586682E-02,7.54885091116E-02,0.143751447322,0.20774694911,
    0.222855879748,0.250042078803,0.293382911908,0.356596015934,
    0.42572762728,0.470929765595,0.522457164469,0.550900646284,
    0.576826022893,0.646052640084,0.708998281557,0.751160348514,
    0.77829770461,0.793304874302,0.856827352328,0.925312858286,
    0.950166619542,1.),.UNSPECIFIED.);
#131 = CARTESIAN_POINT('',(60.,-76.,171.));
#132 = CARTESIAN_POINT('',(60.292711628976,-76.,171.));
#133 = CARTESIAN_POINT('',(60.582586312463,-76.01666009726,
    170.9800081825));
#134 = CARTESIAN_POINT('',(60.866694479368,-76.04939871261,
    170.94072080633));
#135 = CARTESIAN_POINT('',(61.142155152386,-76.09693401028,
    170.88352595393));
#136 = CARTESIAN_POINT('',(61.406251356458,-76.15730573098,
    170.81049372438));
#137 = CARTESIAN_POINT('',(61.656478623992,-76.22792109513,
    170.72440416401));
#138 = CARTESIAN_POINT('',(62.013065988758,-76.34630772593,
    170.57876468653));
#139 = CARTESIAN_POINT('',(62.131896397588,-76.38917480638,
    170.52581539426));
#140 = CARTESIAN_POINT('',(62.247074458617,-76.43397535181,
    170.47022213163));
#141 = CARTESIAN_POINT('',(62.358665482978,-76.48047757019,
    170.41221822964));
#142 = CARTESIAN_POINT('',(62.46674323289,-76.52846840477,170.352013242)
  );
#143 = CARTESIAN_POINT('',(62.571389696886,-76.57775339542,
    170.2897929103));
#144 = CARTESIAN_POINT('',(62.939273881073,-76.76078966171,
    170.05711247415));
#145 = CARTESIAN_POINT('',(63.183201909987,-76.90140746061,
    169.87536379121));
#146 = CARTESIAN_POINT('',(63.406062526051,-77.0469051978,
    169.68326893822));
#147 = CARTESIAN_POINT('',(63.609550208385,-77.19492123757,
    169.48262111535));
#148 = CARTESIAN_POINT('',(63.795291942115,-77.34363982011,
    169.27434362784));
#149 = CARTESIAN_POINT('',(63.964657609631,-77.49152994025,
    169.05862734918));
#150 = CARTESIAN_POINT('',(64.262911844217,-77.77306646219,
    168.62533156621));
#151 = CARTESIAN_POINT('',(64.393321395063,-77.90669721788,
    168.40921633801));
#152 = CARTESIAN_POINT('',(64.510654209723,-78.03624401702,
    168.18640516577));
#153 = CARTESIAN_POINT('',(64.615145072586,-78.1598079274,
    167.95658676324));
#154 = CARTESIAN_POINT('',(64.706590616011,-78.2748071826,
    167.71954633723));
#155 = CARTESIAN_POINT('',(64.784546000582,-78.37787477668,
    167.47508012428));
#156 = CARTESIAN_POINT('',(64.863220344803,-78.48578053427,
    167.16312674285));
#157 = CARTESIAN_POINT('',(64.877445743129,-78.50550609574,
    167.10311842603));
#158 = CARTESIAN_POINT('',(64.890853454819,-78.52428891022,
    167.04270380177));
#159 = CARTESIAN_POINT('',(64.903428766483,-78.54207251179,
    166.98189914482));
#160 = CARTESIAN_POINT('',(64.915158088293,-78.55880248836,
    166.92071803233));
#161 = CARTESIAN_POINT('',(64.926028489869,-78.57442667079,
    166.85917134781));
#162 = CARTESIAN_POINT('',(64.954018443672,-78.61492943671,
    166.68588043661));
#163 = CARTESIAN_POINT('',(64.969206217551,-78.63724935504,
    166.57322089073));
#164 = CARTESIAN_POINT('',(64.981463858725,-78.65549067136,
    166.45959200136));
#165 = CARTESIAN_POINT('',(64.990711769981,-78.66937264789,
    166.34524719973));
#166 = CARTESIAN_POINT('',(64.996900266332,-78.67870219795,
    166.23040409997));
#167 = CARTESIAN_POINT('',(65.,-78.68337520964,166.11525874603));
#168 = CARTESIAN_POINT('',(65.,-78.68337520964,165.81625198632));
#169 = CARTESIAN_POINT('',(64.992121976533,-78.67149896328,
    165.63341524646));
#170 = CARTESIAN_POINT('',(64.976506094418,-78.64795607887,
    165.45186615732));
#171 = CARTESIAN_POINT('',(64.953311742477,-78.61337628046,
    165.27206361454));
#172 = CARTESIAN_POINT('',(64.92275404963,-78.56881437256,
    165.09463780175));
#173 = CARTESIAN_POINT('',(64.885215722898,-78.51572659098,
    164.92047441265));
#174 = CARTESIAN_POINT('',(64.777578362768,-78.36868731614,
    164.50331396575));
#175 = CARTESIAN_POINT('',(64.699947390592,-78.26648566765,
    164.26345414409));
#176 = CARTESIAN_POINT('',(64.609299324074,-78.15293963552,
    164.0307721561));
#177 = CARTESIAN_POINT('',(64.506047661002,-78.03121722573,
    163.80506860103));
#178 = CARTESIAN_POINT('',(64.390372147025,-77.90375281907,
    163.5861314371));
#179 = CARTESIAN_POINT('',(64.26203948652,-77.77234608773,163.3736622563
    ));
#180 = CARTESIAN_POINT('',(63.965213070335,-77.4919427898,
    162.94189719111));
#181 = CARTESIAN_POINT('',(63.79449467424,-77.34283917551,
    162.72442170538));
#182 = CARTESIAN_POINT('',(63.60713619008,-77.19289643841,
    162.51450250187));
#183 = CARTESIAN_POINT('',(63.401729856419,-77.04367804442,
    162.31233353044));
#184 = CARTESIAN_POINT('',(63.176602896001,-76.89704560748,
    162.11886707079));
#185 = CARTESIAN_POINT('',(62.93001563602,-76.75542908664,
    161.93595696525));
#186 = CARTESIAN_POINT('',(62.48402397476,-76.53480806474,
    161.65569427503));
#187 = CARTESIAN_POINT('',(62.297207124009,-76.45078969699,
    161.55024901802));
#188 = CARTESIAN_POINT('',(62.099663236183,-76.37108538585,
    161.45126054995));
#189 = CARTESIAN_POINT('',(61.891224905796,-76.29690959792,
    161.35994442591));
#190 = CARTESIAN_POINT('',(61.671819316636,-76.22958395556,
    161.27764757831));
#191 = CARTESIAN_POINT('',(61.441496114169,-76.17053926908,
    161.20586361865));
#192 = CARTESIAN_POINT('',(60.925684929124,-76.06520813973,
    161.07829050052));
#193 = CARTESIAN_POINT('',(60.635868036113,-76.02163379168,
    161.02586833642));
#194 = CARTESIAN_POINT('',(60.335988396369,-75.99406642259,
    160.99288099087));
#195 = CARTESIAN_POINT('',(60.03122480803,-75.98455289906,
    160.98151257001));
#196 = CARTESIAN_POINT('',(59.726871953859,-75.99361418795,
    160.99231418481));
#197 = CARTESIAN_POINT('',(59.428214512719,-76.02022898665,
    161.02421375427));
#198 = CARTESIAN_POINT('',(58.981453772858,-76.08490556334,
    161.10218598537));
#199 = CARTESIAN_POINT('',(58.825995370894,-76.11247565818,
    161.13548058218));
#200 = CARTESIAN_POINT('',(58.67426171004,-76.14425880666,
    161.17395297163));
#201 = CARTESIAN_POINT('',(58.526513895786,-76.1798767009,
    161.21719851892));
#202 = CARTESIAN_POINT('',(58.382991554792,-76.21892813449,
    161.26479052377));
#203 = CARTESIAN_POINT('',(58.243912667899,-76.26099108167,
    161.31627860165));
#204 = CARTESIAN_POINT('',(57.986936064261,-76.34630704433,
    161.42123447496));
#205 = CARTESIAN_POINT('',(57.8681057717,-76.38917397642,161.47418358183
    ));
#206 = CARTESIAN_POINT('',(57.752926709251,-76.4339748176,161.5297771999
    ));
#207 = CARTESIAN_POINT('',(57.641334317795,-76.48047758607,
    161.58778177808));
#208 = CARTESIAN_POINT('',(57.533255519129,-76.52846894493,
    161.64798742801));
#209 = CARTESIAN_POINT('',(57.428608939807,-76.57775407372,
    161.71020795196));
#210 = CARTESIAN_POINT('',(57.056801071592,-76.7627425209,
    161.94537005095));
#211 = CARTESIAN_POINT('',(56.809611519423,-76.90555421273,
    162.12999640461));
#212 = CARTESIAN_POINT('',(56.584085487306,-77.05334819314,
    162.32523976341));
#213 = CARTESIAN_POINT('',(56.378456148041,-77.20366628353,
    162.5292397982));
#214 = CARTESIAN_POINT('',(56.191031300692,-77.35462346548,
    162.74105320501));
#215 = CARTESIAN_POINT('',(56.0203965528,-77.50462591705,162.96050472853
    ));
#216 = CARTESIAN_POINT('',(55.724828965112,-77.78566261283,
    163.3950890109));
#217 = CARTESIAN_POINT('',(55.597483299555,-77.91687009935,
    163.60832339636));
#218 = CARTESIAN_POINT('',(55.48279252725,-78.04400378225,
    163.82806218414));
#219 = CARTESIAN_POINT('',(55.380551274892,-78.16522376023,
    164.05460051505));
#220 = CARTESIAN_POINT('',(55.290961423849,-78.27804450453,
    164.28814339442));
#221 = CARTESIAN_POINT('',(55.214453178931,-78.37924745152,
    164.52888825115));
#222 = CARTESIAN_POINT('',(55.109844581532,-78.52272332112,
    164.94367411315));
#223 = CARTESIAN_POINT('',(55.073899760816,-78.57369745759,
    165.11429477955));
#224 = CARTESIAN_POINT('',(55.044653185308,-78.61641074019,
    165.28800402082));
#225 = CARTESIAN_POINT('',(55.022462140568,-78.64951162875,
    165.4639632151));
#226 = CARTESIAN_POINT('',(55.007528703789,-78.67202553693,
    165.6415684892));
#227 = CARTESIAN_POINT('',(55.,-78.68337520964,165.82037209582));
#228 = CARTESIAN_POINT('',(55.,-78.68337520964,166.11561640005));
#229 = CARTESIAN_POINT('',(55.00311900076,-78.67867315201,
    166.23111773489));
#230 = CARTESIAN_POINT('',(55.009345834961,-78.66928580451,
    166.34631386812));
#231 = CARTESIAN_POINT('',(55.018650808378,-78.65531854941,
    166.46100736487));
#232 = CARTESIAN_POINT('',(55.03098370128,-78.63696673828,
    166.57497890974));
#233 = CARTESIAN_POINT('',(55.04626402832,-78.61451434192,
    166.68797286955));
#234 = CARTESIAN_POINT('',(55.074372737486,-78.57384969232,
    166.86145957514));
#235 = CARTESIAN_POINT('',(55.085249918401,-78.55821972255,
    166.92287956608));
#236 = CARTESIAN_POINT('',(55.096982432765,-78.54148949509,
    166.98393487828));
#237 = CARTESIAN_POINT('',(55.109557423387,-78.52371091293,
    167.04461475399));
#238 = CARTESIAN_POINT('',(55.122961384098,-78.50493808599,
    167.10490576906));
#239 = CARTESIAN_POINT('',(55.13717970107,-78.4852271441,167.16479182893
    ));
#240 = CARTESIAN_POINT('',(55.215758136161,-78.37747788771,
    167.47594685514));
#241 = CARTESIAN_POINT('',(55.293552140983,-78.27464424519,
    167.71977671083));
#242 = CARTESIAN_POINT('',(55.384767882456,-78.15994479496,
    167.9562175525));
#243 = CARTESIAN_POINT('',(55.488963806562,-78.03671991778,
    168.18547223272));
#244 = CARTESIAN_POINT('',(55.605938075805,-77.90753306564,
    168.40775443561));
#245 = CARTESIAN_POINT('',(55.735922436751,-77.77427139965,
    168.62337314795));
#246 = CARTESIAN_POINT('',(56.034787053609,-77.49194267271,
    169.05810298917));
#247 = CARTESIAN_POINT('',(56.205505714276,-77.34283882768,
    169.27557881063));
#248 = CARTESIAN_POINT('',(56.392864520007,-77.19289586631,
    169.48549829716));
#249 = CARTESIAN_POINT('',(56.598271122899,-77.04367734816,
    169.68766740295));
#250 = CARTESIAN_POINT('',(56.823398178592,-76.89704496065,
    169.8811337684));
#251 = CARTESIAN_POINT('',(57.069985153721,-76.75542869597,
    170.06404353102));
#252 = CARTESIAN_POINT('',(57.437515681529,-76.57362045231,
    170.29500097576));
#253 = CARTESIAN_POINT('',(57.538483082501,-76.52626038952,
    170.3547677863));
#254 = CARTESIAN_POINT('',(57.642634367888,-76.48010899533,
    170.41265783961));
#255 = CARTESIAN_POINT('',(57.750042735866,-76.43534020591,
    170.46850485286));
#256 = CARTESIAN_POINT('',(57.860774322638,-76.39214397201,
    170.52212204157));
#257 = CARTESIAN_POINT('',(57.974888018035,-76.35072637497,
    170.5733021502));
#258 = CARTESIAN_POINT('',(58.328125059521,-76.23227687477,
    170.71909382637));
#259 = CARTESIAN_POINT('',(58.580275573716,-76.16039746357,
    170.80675320335));
#260 = CARTESIAN_POINT('',(58.846575369269,-76.09889514537,
    170.88116596195));
#261 = CARTESIAN_POINT('',(59.124509330878,-76.05042844802,
    170.93948505323));
#262 = CARTESIAN_POINT('',(59.411340273985,-76.01701828319,
    170.97957838873));
#263 = CARTESIAN_POINT('',(59.704158597838,-76.,171.));
#264 = CARTESIAN_POINT('',(60.,-76.,171.));
#265 = PCURVE('',#49,#266);
#266 = DEFINITIONAL_REPRESENTATION('',(#267),#402);
#267 = B_SPLINE_CURVE_WITH_KNOTS('',7,(#268,#269,#270,#271,#272,#273,
    #274,#275,#276,#277,#278,#279,#280,#281,#282,#283,#284,#285,#286,
    #287,#288,#289,#290,#291,#292,#293,#294,#295,#296,#297,#298,#299,
    #300,#301,#302,#303,#304,#305,#306,#307,#308,#309,#310,#311,#312,
    #313,#314,#315,#316,#317,#318,#319,#320,#321,#322,#323,#324,#325,
    #326,#327,#328,#329,#330,#331,#332,#333,#334,#335,#336,#337,#338,
    #339,#340,#341,#342,#343,#344,#345,#346,#347,#348,#349,#350,#351,
    #352,#353,#354,#355,#356,#357,#358,#359,#360,#361,#362,#363,#364,
    #365,#366,#367,#368,#369,#370,#371,#372,#373,#374,#375,#376,#377,
    #378,#379,#380,#381,#382,#383,#384,#385,#386,#387,#388,#389,#390,
    #391,#392,#393,#394,#395,#396,#397,#398,#399,#400,#401),
  .UNSPECIFIED.,.T.,.F.,(8,6,6,6,6,6,6,6,6,6,6,6,6,6,6,6,6,6,6,6,6,6,8),
  (0.,4.954727586682E-02,7.54885091116E-02,0.143751447322,0.20774694911,
    0.222855879748,0.250042078803,0.293382911908,0.356596015934,
    0.42572762728,0.470929765595,0.522457164469,0.550900646284,
    0.576826022893,0.646052640084,0.708998281557,0.751160348514,
    0.77829770461,0.793304874302,0.856827352328,0.925312858286,
    0.950166619542,1.),.UNSPECIFIED.);
#268 = CARTESIAN_POINT('',(1.570796326795,15.));
#269 = CARTESIAN_POINT('',(1.522011055299,15.));
#270 = CARTESIAN_POINT('',(1.473698548141,14.980008182505));
#271 = CARTESIAN_POINT('',(1.426157745529,14.94072080633));
#272 = CARTESIAN_POINT('',(1.379694977243,14.883525953936));
#273 = CARTESIAN_POINT('',(1.334637428334,14.81049372438));
#274 = CARTESIAN_POINT('',(1.291348804551,14.724404164013));
#275 = CARTESIAN_POINT('',(1.228727823184,14.578764686533));
#276 = CARTESIAN_POINT('',(1.207680420158,14.525815394269));
#277 = CARTESIAN_POINT('',(1.18709294077,14.470222131632));
#278 = CARTESIAN_POINT('',(1.166954131446,14.412218229641));
#279 = CARTESIAN_POINT('',(1.147253121467,14.352013242005));
#280 = CARTESIAN_POINT('',(1.127979011759,14.289792910301));
#281 = CARTESIAN_POINT('',(1.059495224595,14.057112474155));
#282 = CARTESIAN_POINT('',(1.01265711444,13.875363791212));
#283 = CARTESIAN_POINT('',(0.968400792704,13.683268938226));
#284 = CARTESIAN_POINT('',(0.926549765505,13.482621115349));
#285 = CARTESIAN_POINT('',(0.886952082868,13.274343627844));
#286 = CARTESIAN_POINT('',(0.849505724642,13.058627349184));
#287 = CARTESIAN_POINT('',(0.781148330172,12.625331566215));
#288 = CARTESIAN_POINT('',(0.750054755097,12.409216338011));
#289 = CARTESIAN_POINT('',(0.720954159663,12.186405165774));
#290 = CARTESIAN_POINT('',(0.69400824708,11.956586763248));
#291 = CARTESIAN_POINT('',(0.669532509936,11.719546337234));
#292 = CARTESIAN_POINT('',(0.647997770603,11.475080124282));
#293 = CARTESIAN_POINT('',(0.625740870949,11.163126742852));
#294 = CARTESIAN_POINT('',(0.62168760185,11.103118426035));
#295 = CARTESIAN_POINT('',(0.617841456582,11.04270380177));
#296 = CARTESIAN_POINT('',(0.614211412642,10.981899144826));
#297 = CARTESIAN_POINT('',(0.610806106224,10.920718032334));
#298 = CARTESIAN_POINT('',(0.607633843002,10.85917134781));
#299 = CARTESIAN_POINT('',(0.599428303611,10.685880436618));
#300 = CARTESIAN_POINT('',(0.59492889399,10.573220890733));
#301 = CARTESIAN_POINT('',(0.591266099689,10.459592001362));
#302 = CARTESIAN_POINT('',(0.588486057632,10.345247199735));
#303 = CARTESIAN_POINT('',(0.586620145057,10.230404099978));
#304 = CARTESIAN_POINT('',(0.585685543457,10.115258746033));
#305 = CARTESIAN_POINT('',(0.585685543457,9.816251986325));
#306 = CARTESIAN_POINT('',(0.5880607709,9.633415246463));
#307 = CARTESIAN_POINT('',(0.59276942439,9.451866157327));
#308 = CARTESIAN_POINT('',(0.599708854334,9.272063614544));
#309 = CARTESIAN_POINT('',(0.608713283776,9.094637801754));
#310 = CARTESIAN_POINT('',(0.619548233211,8.920474412654));
#311 = CARTESIAN_POINT('',(0.649919249017,8.503313965758));
#312 = CARTESIAN_POINT('',(0.671306278532,8.263454144094));
#313 = CARTESIAN_POINT('',(0.695509995963,8.030772156105));
#314 = CARTESIAN_POINT('',(0.722089246332,7.805068601039));
#315 = CARTESIAN_POINT('',(0.750748580149,7.586131437102));
#316 = CARTESIAN_POINT('',(0.781336471336,7.373662256301));
#317 = CARTESIAN_POINT('',(0.849391173769,6.941897191111));
#318 = CARTESIAN_POINT('',(0.887139750304,6.724421705388));
#319 = CARTESIAN_POINT('',(0.927073829447,6.514502501879));
#320 = CARTESIAN_POINT('',(0.969299051125,6.312333530441));
#321 = CARTESIAN_POINT('',(1.01397211856,6.118867070793));
#322 = CARTESIAN_POINT('',(1.061274567222,5.935956965252));
#323 = CARTESIAN_POINT('',(1.144203954389,5.655694275037));
#324 = CARTESIAN_POINT('',(1.178320908228,5.550249018029));
#325 = CARTESIAN_POINT('',(1.213779337842,5.451260549957));
#326 = CARTESIAN_POINT('',(1.250592749019,5.359944425917));
#327 = CARTESIAN_POINT('',(1.288778403319,5.277647578319));
#328 = CARTESIAN_POINT('',(1.328358433851,5.205863618654));
#329 = CARTESIAN_POINT('',(1.416101085558,5.078290500522));
#330 = CARTESIAN_POINT('',(1.464880504741,5.025868336423));
#331 = CARTESIAN_POINT('',(1.514935068799,4.992880990872));
#332 = CARTESIAN_POINT('',(1.565586298032,4.981512570011));
#333 = CARTESIAN_POINT('',(1.616190066385,4.992314184812));
#334 = CARTESIAN_POINT('',(1.666088535376,5.024213754272));
#335 = CARTESIAN_POINT('',(1.741324870099,5.102185985379));
#336 = CARTESIAN_POINT('',(1.767625631176,5.135480582188));
#337 = CARTESIAN_POINT('',(1.793443935217,5.173952971634));
#338 = CARTESIAN_POINT('',(1.818754106232,5.217198518928));
#339 = CARTESIAN_POINT('',(1.843528299527,5.264790523778));
#340 = CARTESIAN_POINT('',(1.867736322612,5.316278601657));
#341 = CARTESIAN_POINT('',(1.912864469871,5.421234474962));
#342 = CARTESIAN_POINT('',(1.933911846172,5.474183581839));
#343 = CARTESIAN_POINT('',(1.95449949911,5.529777199905));
#344 = CARTESIAN_POINT('',(1.974638554124,5.587781778088));
#345 = CARTESIAN_POINT('',(1.994339759119,5.647987428014));
#346 = CARTESIAN_POINT('',(2.013613895619,5.710207951967));
#347 = CARTESIAN_POINT('',(2.082828099455,5.945370050958));
#348 = CARTESIAN_POINT('',(2.130315765963,6.129996404618));
#349 = CARTESIAN_POINT('',(2.175149234568,6.325239763414));
#350 = CARTESIAN_POINT('',(2.217511585556,6.5292397982));
#351 = CARTESIAN_POINT('',(2.257559661079,6.741053205013));
#352 = CARTESIAN_POINT('',(2.295396372308,6.960504728534));
#353 = CARTESIAN_POINT('',(2.36337141333,7.3950890109));
#354 = CARTESIAN_POINT('',(2.393821054048,7.608323396368));
#355 = CARTESIAN_POINT('',(2.422329783501,7.828062184141));
#356 = CARTESIAN_POINT('',(2.448736784383,8.054600515058));
#357 = CARTESIAN_POINT('',(2.472736485104,8.288143394426));
#358 = CARTESIAN_POINT('',(2.493878014182,8.528888251156));
#359 = CARTESIAN_POINT('',(2.523471690218,8.943674113157));
#360 = CARTESIAN_POINT('',(2.533865851508,9.114294779553));
#361 = CARTESIAN_POINT('',(2.542492728276,9.288004020822));
#362 = CARTESIAN_POINT('',(2.54913434687,9.463963215102));
#363 = CARTESIAN_POINT('',(2.553637194335,9.641568489203));
#364 = CARTESIAN_POINT('',(2.555907110133,9.820372095822));
#365 = CARTESIAN_POINT('',(2.555907110133,10.115616400058));
#366 = CARTESIAN_POINT('',(2.554966699362,10.231117734896));
#367 = CARTESIAN_POINT('',(2.55308922724,10.346313868126));
#368 = CARTESIAN_POINT('',(2.550292084031,10.461007364872));
#369 = CARTESIAN_POINT('',(2.546607010387,10.574978909744));
#370 = CARTESIAN_POINT('',(2.542080670549,10.687972869557));
#371 = CARTESIAN_POINT('',(2.533841682515,10.861459575148));
#372 = CARTESIAN_POINT('',(2.530667982247,10.922879566089));
#373 = CARTESIAN_POINT('',(2.527262336153,10.983934878288));
#374 = CARTESIAN_POINT('',(2.523633006103,11.044614753995));
#375 = CARTESIAN_POINT('',(2.519788578735,11.10490576906));
#376 = CARTESIAN_POINT('',(2.515737976095,11.164791828935));
#377 = CARTESIAN_POINT('',(2.493511569931,11.47594685514));
#378 = CARTESIAN_POINT('',(2.472024141445,11.719776710839));
#379 = CARTESIAN_POINT('',(2.447611274187,11.9562175525));
#380 = CARTESIAN_POINT('',(2.420740041291,12.185472232721));
#381 = CARTESIAN_POINT('',(2.391723764788,12.407754435619));
#382 = CARTESIAN_POINT('',(2.3607234611,12.62337314795));
#383 = CARTESIAN_POINT('',(2.292201451403,13.058102989179));
#384 = CARTESIAN_POINT('',(2.254452816415,13.275578810635));
#385 = CARTESIAN_POINT('',(2.214518672419,13.485498297166));
#386 = CARTESIAN_POINT('',(2.172293402877,13.687667402958));
#387 = CARTESIAN_POINT('',(2.127620326703,13.881133768401));
#388 = CARTESIAN_POINT('',(2.08031793952,14.064043531024));
#389 = CARTESIAN_POINT('',(2.01197791417,14.295000975764));
#390 = CARTESIAN_POINT('',(1.993394758397,14.354767786306));
#391 = CARTESIAN_POINT('',(1.974415431995,14.412657839613));
#392 = CARTESIAN_POINT('',(1.955030152897,14.468504852862));
#393 = CARTESIAN_POINT('',(1.93522915981,14.522122041576));
#394 = CARTESIAN_POINT('',(1.91500237132,14.573302150202));
#395 = CARTESIAN_POINT('',(1.852907754543,14.71909382637));
#396 = CARTESIAN_POINT('',(1.809254337694,14.806753203351));
#397 = CARTESIAN_POINT('',(1.763799052963,14.881165961956));
#398 = CARTESIAN_POINT('',(1.716907084054,14.939485053238));
#399 = CARTESIAN_POINT('',(1.668906343155,14.97957838873));
#400 = CARTESIAN_POINT('',(1.620103227155,15.));
#401 = CARTESIAN_POINT('',(1.570796326795,15.));
#402 = ( GEOMETRIC_REPRESENTATION_CONTEXT(2) 
PARAMETRIC_REPRESENTATION_CONTEXT() REPRESENTATION_CONTEXT('2D SPACE',''
  ) );
#403 = PCURVE('',#404,#409);
#404 = CYLINDRICAL_SURFACE('',#405,5.);
#405 = AXIS2_PLACEMENT_3D('',#406,#407,#408);
#406 = CARTESIAN_POINT('',(60.,-82.,166.));
#407 = DIRECTION('',(0.,1.,0.));
#408 = DIRECTION('',(0.,0.,1.));
#409 = DEFINITIONAL_REPRESENTATION('',(#410),#545);
#410 = B_SPLINE_CURVE_WITH_KNOTS('',7,(#411,#412,#413,#414,#415,#416,
    #417,#418,#419,#420,#421,#422,#423,#424,#425,#426,#427,#428,#429,
    #430,#431,#432,#433,#434,#435,#436,#437,#438,#439,#440,#441,#442,
    #443,#444,#445,#446,#447,#448,#449,#450,#451,#452,#453,#454,#455,
    #456,#457,#458,#459,#460,#461,#462,#463,#464,#465,#466,#467,#468,
    #469,#470,#471,#472,#473,#474,#475,#476,#477,#478,#479,#480,#481,
    #482,#483,#484,#485,#486,#487,#488,#489,#490,#491,#492,#493,#494,
    #495,#496,#497,#498,#499,#500,#501,#502,#503,#504,#505,#506,#507,
    #508,#509,#510,#511,#512,#513,#514,#515,#516,#517,#518,#519,#520,
    #521,#522,#523,#524,#525,#526,#527,#528,#529,#530,#531,#532,#533,
    #534,#535,#536,#537,#538,#539,#540,#541,#542,#543,#544),
  .UNSPECIFIED.,.F.,.F.,(8,6,6,6,6,6,6,6,6,6,6,6,6,6,6,6,6,6,6,6,6,6,8),
  (0.,4.954727586682E-02,7.54885091116E-02,0.143751447322,0.20774694911,
    0.222855879748,0.250042078803,0.293382911908,0.356596015934,
    0.42572762728,0.470929765595,0.522457164469,0.550900646284,
    0.576826022893,0.646052640084,0.708998281557,0.751160348514,
    0.77829770461,0.793304874302,0.856827352328,0.925312858286,
    0.950166619542,1.),.UNSPECIFIED.);
#411 = CARTESIAN_POINT('',(0.,6.));
#412 = CARTESIAN_POINT('',(5.854232579523E-02,6.));
#413 = CARTESIAN_POINT('',(0.11651726196,5.983339902735));
#414 = CARTESIAN_POINT('',(0.173666615482,5.950601287384));
#415 = CARTESIAN_POINT('',(0.229713227681,5.903065989712));
#416 = CARTESIAN_POINT('',(0.284345124378,5.842694269018));
#417 = CARTESIAN_POINT('',(0.337185541031,5.772078904862));
#418 = CARTESIAN_POINT('',(0.414222001519,5.653692274067));
#419 = CARTESIAN_POINT('',(0.440227842646,5.61082519362));
#420 = CARTESIAN_POINT('',(0.465787655691,5.566024648186));
#421 = CARTESIAN_POINT('',(0.490921433711,5.519522429805));
#422 = CARTESIAN_POINT('',(0.515648587151,5.47153159523));
#423 = CARTESIAN_POINT('',(0.539988677632,5.422246604575));
#424 = CARTESIAN_POINT('',(0.627047039285,5.239210338286));
#425 = CARTESIAN_POINT('',(0.68770824555,5.098592539386));
#426 = CARTESIAN_POINT('',(0.746324580373,4.953094802194));
#427 = CARTESIAN_POINT('',(0.803259183781,4.805078762424));
#428 = CARTESIAN_POINT('',(0.858896183455,4.656360179887));
#429 = CARTESIAN_POINT('',(0.913640100332,4.508470059748));
#430 = CARTESIAN_POINT('',(1.018844819615,4.226933537809));
#431 = CARTESIAN_POINT('',(1.069236842637,4.093302782112));
#432 = CARTESIAN_POINT('',(1.119464661225,3.963755982972));
#433 = CARTESIAN_POINT('',(1.169801622464,3.8401920726));
#434 = CARTESIAN_POINT('',(1.220473066112,3.725192817394));
#435 = CARTESIAN_POINT('',(1.271694537834,3.622125223318));
#436 = CARTESIAN_POINT('',(1.336038788432,3.51421946573));
#437 = CARTESIAN_POINT('',(1.348371806271,3.494493904255));
#438 = CARTESIAN_POINT('',(1.360746661061,3.47571108978));
#439 = CARTESIAN_POINT('',(1.373162600714,3.457927488206));
#440 = CARTESIAN_POINT('',(1.385619542503,3.441197511635));
#441 = CARTESIAN_POINT('',(1.398118052494,3.42557332921));
#442 = CARTESIAN_POINT('',(1.43322541777,3.385070563287));
#443 = CARTESIAN_POINT('',(1.455953386171,3.362750644958));
#444 = CARTESIAN_POINT('',(1.478798084525,3.344509328631));
#445 = CARTESIAN_POINT('',(1.501726870103,3.330627352109));
#446 = CARTESIAN_POINT('',(1.524715510559,3.321297802045));
#447 = CARTESIAN_POINT('',(1.547744577588,3.316624790355));
#448 = CARTESIAN_POINT('',(1.60754592953,3.316624790355));
#449 = CARTESIAN_POINT('',(1.6441132201,3.32850103672));
#450 = CARTESIAN_POINT('',(1.680504305243,3.352043921124));
#451 = CARTESIAN_POINT('',(1.716704101598,3.386623719537));
#452 = CARTESIAN_POINT('',(1.75266133282,3.431185627431));
#453 = CARTESIAN_POINT('',(1.788265026399,3.48427340902));
#454 = CARTESIAN_POINT('',(1.874429668742,3.631312683854));
#455 = CARTESIAN_POINT('',(1.924759388703,3.733514332348));
#456 = CARTESIAN_POINT('',(1.974567559337,3.847060364473));
#457 = CARTESIAN_POINT('',(2.024060555373,3.968782774263));
#458 = CARTESIAN_POINT('',(2.073454940658,4.096247180926));
#459 = CARTESIAN_POINT('',(2.123012511825,4.227653912266));
#460 = CARTESIAN_POINT('',(2.2278031589,4.508057210197));
#461 = CARTESIAN_POINT('',(2.282988245848,4.657160824488));
#462 = CARTESIAN_POINT('',(2.339081277531,4.80710356159));
#463 = CARTESIAN_POINT('',(2.39649721182,4.956321955571));
#464 = CARTESIAN_POINT('',(2.455629887307,5.102954392512));
#465 = CARTESIAN_POINT('',(2.516851187724,5.24457091336));
#466 = CARTESIAN_POINT('',(2.622199322485,5.465191935252));
#467 = CARTESIAN_POINT('',(2.665055476072,5.549210303003));
#468 = CARTESIAN_POINT('',(2.70915980591,5.628914614144));
#469 = CARTESIAN_POINT('',(2.75455897283,5.703090402075));
#470 = CARTESIAN_POINT('',(2.801307771625,5.770416044435));
#471 = CARTESIAN_POINT('',(2.84947227949,5.829460730919));
#472 = CARTESIAN_POINT('',(2.955742892377,5.934791860262));
#473 = CARTESIAN_POINT('',(3.014528146038,5.978366208315));
#474 = CARTESIAN_POINT('',(3.074629857498,6.005933577407));
#475 = CARTESIAN_POINT('',(3.135337564511,6.015447100934));
#476 = CARTESIAN_POINT('',(3.19599901602,6.006385812046));
#477 = CARTESIAN_POINT('',(3.255938002271,5.979771013341));
#478 = CARTESIAN_POINT('',(3.346640775659,5.915094436654));
#479 = CARTESIAN_POINT('',(3.378414353633,5.887524341811));
#480 = CARTESIAN_POINT('',(3.409686923824,5.855741193337));
#481 = CARTESIAN_POINT('',(3.44044057739,5.820123299097));
#482 = CARTESIAN_POINT('',(3.470653092691,5.781071865502));
#483 = CARTESIAN_POINT('',(3.500297471703,5.739008918328));
#484 = CARTESIAN_POINT('',(3.555814211578,5.653692955667));
#485 = CARTESIAN_POINT('',(3.581820016344,5.610826023579));
#486 = CARTESIAN_POINT('',(3.607380040788,5.566025182399));
#487 = CARTESIAN_POINT('',(3.632514123821,5.519522413926));
#488 = CARTESIAN_POINT('',(3.657241524588,5.471531055069));
#489 = CARTESIAN_POINT('',(3.681581653843,5.422245926279));
#490 = CARTESIAN_POINT('',(3.769568540063,5.237257479098));
#491 = CARTESIAN_POINT('',(3.831088683221,5.094445787268));
#492 = CARTESIAN_POINT('',(3.890510528477,4.946651806854));
#493 = CARTESIAN_POINT('',(3.948212250856,4.796333716465));
#494 = CARTESIAN_POINT('',(4.004594410703,4.645376534513));
#495 = CARTESIAN_POINT('',(4.060078663459,4.495374082949));
#496 = CARTESIAN_POINT('',(4.165192639194,4.214337387167));
#497 = CARTESIAN_POINT('',(4.214779772021,4.083129900644));
#498 = CARTESIAN_POINT('',(4.264224222819,3.955996217749));
#499 = CARTESIAN_POINT('',(4.313784972882,3.834776239764));
#500 = CARTESIAN_POINT('',(4.363676699724,3.721955495466));
#501 = CARTESIAN_POINT('',(4.414105718033,3.620752548478));
#502 = CARTESIAN_POINT('',(4.499660442033,3.477276678875));
#503 = CARTESIAN_POINT('',(4.534506477997,3.426302542406));
#504 = CARTESIAN_POINT('',(4.569690108169,3.38358925981));
#505 = CARTESIAN_POINT('',(4.605105761036,3.350488371242));
#506 = CARTESIAN_POINT('',(4.640702729221,3.327974463062));
#507 = CARTESIAN_POINT('',(4.676463399549,3.316624790355));
#508 = CARTESIAN_POINT('',(4.735512260396,3.316624790355));
#509 = CARTESIAN_POINT('',(4.758612523529,3.321326847986));
#510 = CARTESIAN_POINT('',(4.781671957772,3.330714195484));
#511 = CARTESIAN_POINT('',(4.80467103875,3.344681450583));
#512 = CARTESIAN_POINT('',(4.827585369993,3.36303326172));
#513 = CARTESIAN_POINT('',(4.850382027185,3.385485658078));
#514 = CARTESIAN_POINT('',(4.885531841721,3.426150307672));
#515 = CARTESIAN_POINT('',(4.898005644325,3.44178027745));
#516 = CARTESIAN_POINT('',(4.910438009995,3.458510504904));
#517 = CARTESIAN_POINT('',(4.922829512419,3.47628908707));
#518 = CARTESIAN_POINT('',(4.935180082906,3.495061914009));
#519 = CARTESIAN_POINT('',(4.947488990116,3.514772855896));
#520 = CARTESIAN_POINT('',(5.011673729983,3.622522112286));
#521 = CARTESIAN_POINT('',(5.062764905613,3.725355754803));
#522 = CARTESIAN_POINT('',(5.113308989051,3.840055205032));
#523 = CARTESIAN_POINT('',(5.163520055358,3.963280082215));
#524 = CARTESIAN_POINT('',(5.213621862523,4.092466934352));
#525 = CARTESIAN_POINT('',(5.263885649335,4.22572860035));
#526 = CARTESIAN_POINT('',(5.369395856247,4.508057327284));
#527 = CARTESIAN_POINT('',(5.424581028478,4.65716117232));
#528 = CARTESIAN_POINT('',(5.480674144019,4.807104133684));
#529 = CARTESIAN_POINT('',(5.53809013438,4.95632265184));
#530 = CARTESIAN_POINT('',(5.59722281215,5.102955039345));
#531 = CARTESIAN_POINT('',(5.658444027859,5.244571304025));
#532 = CARTESIAN_POINT('',(5.745258780097,5.426379547688));
#533 = CARTESIAN_POINT('',(5.768716624415,5.473739610475));
#534 = CARTESIAN_POINT('',(5.792534114069,5.519891004664));
#535 = CARTESIAN_POINT('',(5.816728774334,5.564659794084));
#536 = CARTESIAN_POINT('',(5.841318006449,5.607856027985));
#537 = CARTESIAN_POINT('',(5.866319695999,5.64927362503));
#538 = CARTESIAN_POINT('',(5.942747863664,5.767723125225));
#539 = CARTESIAN_POINT('',(5.996052270583,5.839602536428));
#540 = CARTESIAN_POINT('',(6.051178218498,5.90110485463));
#541 = CARTESIAN_POINT('',(6.107748826804,5.949571551977));
#542 = CARTESIAN_POINT('',(6.165453363269,5.982981716802));
#543 = CARTESIAN_POINT('',(6.224017026747,6.));
#544 = CARTESIAN_POINT('',(6.28318530718,6.));
#545 = ( GEOMETRIC_REPRESENTATION_CONTEXT(2) 
PARAMETRIC_REPRESENTATION_CONTEXT() REPRESENTATION_CONTEXT('2D SPACE',''
  ) );
#546 = FACE_BOUND('',#547,.T.);
#547 = EDGE_LOOP('',(#548));
#548 = ORIENTED_EDGE('',*,*,#549,.F.);
#549 = EDGE_CURVE('',#550,#550,#552,.T.);
#550 = VERTEX_POINT('',#551);
#551 = CARTESIAN_POINT('',(60.,-76.,299.));
#552 = SURFACE_CURVE('',#553,(#688,#826),.PCURVE_S1.);
#553 = B_SPLINE_CURVE_WITH_KNOTS('',7,(#554,#555,#556,#557,#558,#559,
    #560,#561,#562,#563,#564,#565,#566,#567,#568,#569,#570,#571,#572,
    #573,#574,#575,#576,#577,#578,#579,#580,#581,#582,#583,#584,#585,
    #586,#587,#588,#589,#590,#591,#592,#593,#594,#595,#596,#597,#598,
    #599,#600,#601,#602,#603,#604,#605,#606,#607,#608,#609,#610,#611,
    #612,#613,#614,#615,#616,#617,#618,#619,#620,#621,#622,#623,#624,
    #625,#626,#627,#628,#629,#630,#631,#632,#633,#634,#635,#636,#637,
    #638,#639,#640,#641,#642,#643,#644,#645,#646,#647,#648,#649,#650,
    #651,#652,#653,#654,#655,#656,#657,#658,#659,#660,#661,#662,#663,
    #664,#665,#666,#667,#668,#669,#670,#671,#672,#673,#674,#675,#676,
    #677,#678,#679,#680,#681,#682,#683,#684,#685,#686,#687),
  .UNSPECIFIED.,.T.,.F.,(8,6,6,6,6,6,6,6,6,6,6,6,6,6,6,6,6,6,6,6,6,6,8),
  (0.,4.954727603006E-02,7.548850936747E-02,0.143751447839,
    0.207746949872,0.222855880568,0.250042079725,0.293382912888,
    0.356596016829,0.425727628083,0.470929766338,0.522457165144,
    0.550900646921,0.576826023497,0.6460526406,0.708998281994,
    0.751160348897,0.778297704959,0.793304874633,0.856827352579,
    0.925312858449,0.950166619675,1.),.UNSPECIFIED.);
#554 = CARTESIAN_POINT('',(60.,-76.,299.));
#555 = CARTESIAN_POINT('',(60.292711628973,-76.,299.));
#556 = CARTESIAN_POINT('',(60.582586312463,-76.01666009726,
    298.9800081825));
#557 = CARTESIAN_POINT('',(60.86669447937,-76.04939871261,
    298.94072080633));
#558 = CARTESIAN_POINT('',(61.142155152388,-76.09693401028,
    298.88352595393));
#559 = CARTESIAN_POINT('',(61.406251356457,-76.15730573098,
    298.81049372438));
#560 = CARTESIAN_POINT('',(61.656478623989,-76.22792109513,
    298.72440416401));
#561 = CARTESIAN_POINT('',(62.013065988793,-76.34630772594,
    298.57876468651));
#562 = CARTESIAN_POINT('',(62.131896397591,-76.38917480638,
    298.52581539426));
#563 = CARTESIAN_POINT('',(62.247074458592,-76.4339753518,
    298.47022213164));
#564 = CARTESIAN_POINT('',(62.358665482954,-76.48047757018,
    298.41221822965));
#565 = CARTESIAN_POINT('',(62.466743232894,-76.52846840477,298.352013242
    ));
#566 = CARTESIAN_POINT('',(62.571389696912,-76.57775339543,
    298.28979291028));
#567 = CARTESIAN_POINT('',(62.939273881072,-76.76078966171,
    298.05711247415));
#568 = CARTESIAN_POINT('',(63.183201909987,-76.90140746061,
    297.87536379121));
#569 = CARTESIAN_POINT('',(63.406062526051,-77.0469051978,
    297.68326893822));
#570 = CARTESIAN_POINT('',(63.609550208385,-77.19492123757,
    297.48262111535));
#571 = CARTESIAN_POINT('',(63.795291942115,-77.34363982011,
    297.27434362784));
#572 = CARTESIAN_POINT('',(63.964657609631,-77.49152994025,
    297.05862734918));
#573 = CARTESIAN_POINT('',(64.262911844217,-77.77306646219,
    296.62533156621));
#574 = CARTESIAN_POINT('',(64.393321395063,-77.90669721788,
    296.40921633801));
#575 = CARTESIAN_POINT('',(64.510654209722,-78.03624401702,
    296.18640516577));
#576 = CARTESIAN_POINT('',(64.615145072587,-78.1598079274,
    295.95658676324));
#577 = CARTESIAN_POINT('',(64.70659061601,-78.2748071826,295.71954633723
    ));
#578 = CARTESIAN_POINT('',(64.784546000582,-78.37787477668,
    295.47508012428));
#579 = CARTESIAN_POINT('',(64.863220344803,-78.48578053427,
    295.16312674285));
#580 = CARTESIAN_POINT('',(64.877445743129,-78.50550609574,
    295.10311842603));
#581 = CARTESIAN_POINT('',(64.890853454819,-78.52428891022,
    295.04270380177));
#582 = CARTESIAN_POINT('',(64.903428766483,-78.54207251179,
    294.98189914482));
#583 = CARTESIAN_POINT('',(64.915158088293,-78.55880248836,
    294.92071803233));
#584 = CARTESIAN_POINT('',(64.926028489869,-78.57442667079,
    294.85917134781));
#585 = CARTESIAN_POINT('',(64.954018443671,-78.61492943671,
    294.68588043662));
#586 = CARTESIAN_POINT('',(64.969206217551,-78.63724935504,
    294.57322089073));
#587 = CARTESIAN_POINT('',(64.981463858726,-78.65549067137,
    294.45959200135));
#588 = CARTESIAN_POINT('',(64.990711769981,-78.66937264789,
    294.34524719972));
#589 = CARTESIAN_POINT('',(64.996900266332,-78.67870219795,
    294.23040409997));
#590 = CARTESIAN_POINT('',(65.,-78.68337520964,294.11525874604));
#591 = CARTESIAN_POINT('',(65.,-78.68337520964,293.81625198676));
#592 = CARTESIAN_POINT('',(64.992121976569,-78.67149896333,
    293.63341524653));
#593 = CARTESIAN_POINT('',(64.976506094408,-78.64795607885,
    293.45186615699));
#594 = CARTESIAN_POINT('',(64.953311742401,-78.61337628035,
    293.27206361417));
#595 = CARTESIAN_POINT('',(64.922754049596,-78.56881437253,
    293.09463780177));
#596 = CARTESIAN_POINT('',(64.885215723014,-78.51572659113,
    292.9204744131));
#597 = CARTESIAN_POINT('',(64.777578362768,-78.36868731614,
    292.50331396575));
#598 = CARTESIAN_POINT('',(64.699947390592,-78.26648566765,
    292.26345414409));
#599 = CARTESIAN_POINT('',(64.609299324074,-78.15293963552,
    292.0307721561));
#600 = CARTESIAN_POINT('',(64.506047661003,-78.03121722573,
    291.80506860104));
#601 = CARTESIAN_POINT('',(64.390372147024,-77.90375281907,
    291.5861314371));
#602 = CARTESIAN_POINT('',(64.26203948652,-77.77234608773,291.3736622563
    ));
#603 = CARTESIAN_POINT('',(63.965213070335,-77.4919427898,
    290.94189719111));
#604 = CARTESIAN_POINT('',(63.79449467424,-77.34283917551,
    290.72442170538));
#605 = CARTESIAN_POINT('',(63.607136190081,-77.19289643841,
    290.51450250188));
#606 = CARTESIAN_POINT('',(63.401729856418,-77.04367804442,
    290.31233353044));
#607 = CARTESIAN_POINT('',(63.176602896002,-76.89704560748,
    290.11886707079));
#608 = CARTESIAN_POINT('',(62.93001563602,-76.75542908664,
    289.93595696525));
#609 = CARTESIAN_POINT('',(62.48402397476,-76.53480806474,
    289.65569427503));
#610 = CARTESIAN_POINT('',(62.297207124009,-76.45078969699,
    289.55024901802));
#611 = CARTESIAN_POINT('',(62.099663236183,-76.37108538585,
    289.45126054995));
#612 = CARTESIAN_POINT('',(61.891224905796,-76.29690959792,
    289.35994442591));
#613 = CARTESIAN_POINT('',(61.671819316636,-76.22958395556,
    289.27764757831));
#614 = CARTESIAN_POINT('',(61.441496114169,-76.17053926908,
    289.20586361865));
#615 = CARTESIAN_POINT('',(60.925684929123,-76.06520813973,
    289.07829050052));
#616 = CARTESIAN_POINT('',(60.635868036112,-76.02163379168,
    289.02586833642));
#617 = CARTESIAN_POINT('',(60.33598839637,-75.99406642259,
    288.99288099087));
#618 = CARTESIAN_POINT('',(60.031224808032,-75.98455289906,
    288.98151257001));
#619 = CARTESIAN_POINT('',(59.726871953859,-75.99361418795,
    288.99231418481));
#620 = CARTESIAN_POINT('',(59.428214512718,-76.02022898665,
    289.02421375427));
#621 = CARTESIAN_POINT('',(58.981453772858,-76.08490556334,
    289.10218598537));
#622 = CARTESIAN_POINT('',(58.825995370894,-76.11247565818,
    289.13548058218));
#623 = CARTESIAN_POINT('',(58.67426171004,-76.14425880666,
    289.17395297163));
#624 = CARTESIAN_POINT('',(58.526513895786,-76.1798767009,
    289.21719851892));
#625 = CARTESIAN_POINT('',(58.382991554792,-76.21892813449,
    289.26479052377));
#626 = CARTESIAN_POINT('',(58.243912667899,-76.26099108167,
    289.31627860165));
#627 = CARTESIAN_POINT('',(57.986936064257,-76.34630704433,
    289.42123447496));
#628 = CARTESIAN_POINT('',(57.8681057717,-76.38917397642,289.47418358184
    ));
#629 = CARTESIAN_POINT('',(57.752926709254,-76.4339748176,289.5297771999
    ));
#630 = CARTESIAN_POINT('',(57.641334317797,-76.48047758607,
    289.58778177808));
#631 = CARTESIAN_POINT('',(57.533255519128,-76.52846894493,
    289.64798742801));
#632 = CARTESIAN_POINT('',(57.428608939804,-76.57775407372,
    289.71020795196));
#633 = CARTESIAN_POINT('',(57.056801071592,-76.7627425209,
    289.94537005095));
#634 = CARTESIAN_POINT('',(56.809611519423,-76.90555421273,
    290.12999640461));
#635 = CARTESIAN_POINT('',(56.584085487306,-77.05334819314,
    290.32523976341));
#636 = CARTESIAN_POINT('',(56.378456148041,-77.20366628353,
    290.5292397982));
#637 = CARTESIAN_POINT('',(56.191031300691,-77.35462346548,
    290.74105320501));
#638 = CARTESIAN_POINT('',(56.020396552801,-77.50462591705,
    290.96050472853));
#639 = CARTESIAN_POINT('',(55.724828965113,-77.78566261283,
    291.39508901089));
#640 = CARTESIAN_POINT('',(55.597483299555,-77.91687009935,
    291.60832339636));
#641 = CARTESIAN_POINT('',(55.48279252725,-78.04400378225,
    291.82806218414));
#642 = CARTESIAN_POINT('',(55.380551274893,-78.16522376023,
    292.05460051505));
#643 = CARTESIAN_POINT('',(55.290961423849,-78.27804450453,
    292.28814339442));
#644 = CARTESIAN_POINT('',(55.21445317893,-78.37924745152,
    292.52888825115));
#645 = CARTESIAN_POINT('',(55.109844581532,-78.52272332112,
    292.94367411315));
#646 = CARTESIAN_POINT('',(55.073899760816,-78.57369745759,
    293.11429477955));
#647 = CARTESIAN_POINT('',(55.044653185308,-78.61641074019,
    293.28800402082));
#648 = CARTESIAN_POINT('',(55.022462140568,-78.64951162875,
    293.4639632151));
#649 = CARTESIAN_POINT('',(55.007528703789,-78.67202553693,
    293.6415684892));
#650 = CARTESIAN_POINT('',(55.,-78.68337520964,293.82037209582));
#651 = CARTESIAN_POINT('',(55.,-78.68337520964,294.11561640005));
#652 = CARTESIAN_POINT('',(55.00311900076,-78.67867315201,
    294.23111773489));
#653 = CARTESIAN_POINT('',(55.009345834961,-78.66928580451,
    294.34631386812));
#654 = CARTESIAN_POINT('',(55.018650808378,-78.65531854941,
    294.46100736487));
#655 = CARTESIAN_POINT('',(55.03098370128,-78.63696673828,
    294.57497890974));
#656 = CARTESIAN_POINT('',(55.04626402832,-78.61451434192,
    294.68797286955));
#657 = CARTESIAN_POINT('',(55.074372737486,-78.57384969232,
    294.86145957514));
#658 = CARTESIAN_POINT('',(55.085249918401,-78.55821972255,
    294.92287956608));
#659 = CARTESIAN_POINT('',(55.096982432765,-78.54148949509,
    294.98393487828));
#660 = CARTESIAN_POINT('',(55.109557423387,-78.52371091293,
    295.04461475399));
#661 = CARTESIAN_POINT('',(55.122961384098,-78.50493808599,
    295.10490576906));
#662 = CARTESIAN_POINT('',(55.13717970107,-78.4852271441,295.16479182893
    ));
#663 = CARTESIAN_POINT('',(55.215758136161,-78.37747788771,
    295.47594685514));
#664 = CARTESIAN_POINT('',(55.293552140982,-78.27464424519,
    295.71977671083));
#665 = CARTESIAN_POINT('',(55.384767882459,-78.15994479496,
    295.9562175525));
#666 = CARTESIAN_POINT('',(55.488963806559,-78.03671991778,
    296.18547223271));
#667 = CARTESIAN_POINT('',(55.605938075807,-77.90753306564,
    296.40775443562));
#668 = CARTESIAN_POINT('',(55.73592243675,-77.77427139965,
    296.62337314794));
#669 = CARTESIAN_POINT('',(56.034787053609,-77.49194267271,
    297.05810298917));
#670 = CARTESIAN_POINT('',(56.205505714276,-77.34283882768,
    297.27557881063));
#671 = CARTESIAN_POINT('',(56.392864520007,-77.19289586631,
    297.48549829716));
#672 = CARTESIAN_POINT('',(56.598271122899,-77.04367734816,
    297.68766740295));
#673 = CARTESIAN_POINT('',(56.823398178592,-76.89704496065,
    297.8811337684));
#674 = CARTESIAN_POINT('',(57.069985153721,-76.75542869597,
    298.06404353102));
#675 = CARTESIAN_POINT('',(57.437515681534,-76.57362045231,
    298.29500097576));
#676 = CARTESIAN_POINT('',(57.538483082501,-76.52626038952,
    298.3547677863));
#677 = CARTESIAN_POINT('',(57.642634367883,-76.48010899533,
    298.41265783961));
#678 = CARTESIAN_POINT('',(57.750042735861,-76.43534020591,
    298.46850485286));
#679 = CARTESIAN_POINT('',(57.860774322639,-76.39214397201,
    298.52212204157));
#680 = CARTESIAN_POINT('',(57.974888018041,-76.35072637496,
    298.5733021502));
#681 = CARTESIAN_POINT('',(58.328125059162,-76.23227687489,
    298.71909382622));
#682 = CARTESIAN_POINT('',(58.580275574713,-76.16039746336,
    298.8067532036));
#683 = CARTESIAN_POINT('',(58.846575368516,-76.09889514542,
    298.88116596189));
#684 = CARTESIAN_POINT('',(59.124509330281,-76.05042844816,
    298.93948505306));
#685 = CARTESIAN_POINT('',(59.411340275178,-76.01701828309,
    298.97957838885));
#686 = CARTESIAN_POINT('',(59.704158597287,-76.,299.));
#687 = CARTESIAN_POINT('',(60.,-76.,299.));
#688 = PCURVE('',#49,#689);
#689 = DEFINITIONAL_REPRESENTATION('',(#690),#825);
#690 = B_SPLINE_CURVE_WITH_KNOTS('',7,(#691,#692,#693,#694,#695,#696,
    #697,#698,#699,#700,#701,#702,#703,#704,#705,#706,#707,#708,#709,
    #710,#711,#712,#713,#714,#715,#716,#717,#718,#719,#720,#721,#722,
    #723,#724,#725,#726,#727,#728,#729,#730,#731,#732,#733,#734,#735,
    #736,#737,#738,#739,#740,#741,#742,#743,#744,#745,#746,#747,#748,
    #749,#750,#751,#752,#753,#754,#755,#756,#757,#758,#759,#760,#761,
    #762,#763,#764,#765,#766,#767,#768,#769,#770,#771,#772,#773,#774,
    #775,#776,#777,#778,#779,#780,#781,#782,#783,#784,#785,#786,#787,
    #788,#789,#790,#791,#792,#793,#794,#795,#796,#797,#798,#799,#800,
    #801,#802,#803,#804,#805,#806,#807,#808,#809,#810,#811,#812,#813,
    #814,#815,#816,#817,#818,#819,#820,#821,#822,#823,#824),
  .UNSPECIFIED.,.T.,.F.,(8,6,6,6,6,6,6,6,6,6,6,6,6,6,6,6,6,6,6,6,6,6,8),
  (0.,4.954727603006E-02,7.548850936747E-02,0.143751447839,
    0.207746949872,0.222855880568,0.250042079725,0.293382912888,
    0.356596016829,0.425727628083,0.470929766338,0.522457165144,
    0.550900646921,0.576826023497,0.6460526406,0.708998281994,
    0.751160348897,0.778297704959,0.793304874633,0.856827352579,
    0.925312858449,0.950166619675,1.),.UNSPECIFIED.);
#691 = CARTESIAN_POINT('',(1.570796326795,143.));
#692 = CARTESIAN_POINT('',(1.522011055299,143.));
#693 = CARTESIAN_POINT('',(1.473698548141,142.9800081825));
#694 = CARTESIAN_POINT('',(1.426157745529,142.94072080633));
#695 = CARTESIAN_POINT('',(1.379694977242,142.88352595393));
#696 = CARTESIAN_POINT('',(1.334637428334,142.81049372438));
#697 = CARTESIAN_POINT('',(1.291348804551,142.72440416401));
#698 = CARTESIAN_POINT('',(1.228727823178,142.57876468651));
#699 = CARTESIAN_POINT('',(1.207680420157,142.52581539426));
#700 = CARTESIAN_POINT('',(1.187092940775,142.47022213164));
#701 = CARTESIAN_POINT('',(1.166954131451,142.41221822965));
#702 = CARTESIAN_POINT('',(1.147253121466,142.352013242));
#703 = CARTESIAN_POINT('',(1.127979011754,142.28979291028));
#704 = CARTESIAN_POINT('',(1.059495224595,142.05711247415));
#705 = CARTESIAN_POINT('',(1.01265711444,141.87536379121));
#706 = CARTESIAN_POINT('',(0.968400792704,141.68326893822));
#707 = CARTESIAN_POINT('',(0.926549765505,141.48262111535));
#708 = CARTESIAN_POINT('',(0.886952082868,141.27434362784));
#709 = CARTESIAN_POINT('',(0.849505724642,141.05862734918));
#710 = CARTESIAN_POINT('',(0.781148330172,140.62533156621));
#711 = CARTESIAN_POINT('',(0.750054755096,140.40921633801));
#712 = CARTESIAN_POINT('',(0.720954159664,140.18640516577));
#713 = CARTESIAN_POINT('',(0.69400824708,139.95658676324));
#714 = CARTESIAN_POINT('',(0.669532509936,139.71954633723));
#715 = CARTESIAN_POINT('',(0.647997770603,139.47508012428));
#716 = CARTESIAN_POINT('',(0.625740870949,139.16312674285));
#717 = CARTESIAN_POINT('',(0.62168760185,139.10311842603));
#718 = CARTESIAN_POINT('',(0.617841456582,139.04270380177));
#719 = CARTESIAN_POINT('',(0.614211412642,138.98189914482));
#720 = CARTESIAN_POINT('',(0.610806106224,138.92071803233));
#721 = CARTESIAN_POINT('',(0.607633843002,138.85917134781));
#722 = CARTESIAN_POINT('',(0.599428303611,138.68588043662));
#723 = CARTESIAN_POINT('',(0.59492889399,138.57322089073));
#724 = CARTESIAN_POINT('',(0.591266099689,138.45959200135));
#725 = CARTESIAN_POINT('',(0.588486057632,138.34524719972));
#726 = CARTESIAN_POINT('',(0.586620145057,138.23040409997));
#727 = CARTESIAN_POINT('',(0.585685543457,138.11525874604));
#728 = CARTESIAN_POINT('',(0.585685543457,137.81625198676));
#729 = CARTESIAN_POINT('',(0.588060770889,137.63341524653));
#730 = CARTESIAN_POINT('',(0.592769424394,137.45186615699));
#731 = CARTESIAN_POINT('',(0.599708854356,137.27206361417));
#732 = CARTESIAN_POINT('',(0.608713283785,137.09463780177));
#733 = CARTESIAN_POINT('',(0.619548233178,136.9204744131));
#734 = CARTESIAN_POINT('',(0.649919249017,136.50331396575));
#735 = CARTESIAN_POINT('',(0.671306278532,136.26345414409));
#736 = CARTESIAN_POINT('',(0.695509995963,136.0307721561));
#737 = CARTESIAN_POINT('',(0.722089246332,135.80506860103));
#738 = CARTESIAN_POINT('',(0.750748580149,135.5861314371));
#739 = CARTESIAN_POINT('',(0.781336471336,135.3736622563));
#740 = CARTESIAN_POINT('',(0.849391173769,134.94189719111));
#741 = CARTESIAN_POINT('',(0.887139750304,134.72442170538));
#742 = CARTESIAN_POINT('',(0.927073829447,134.51450250188));
#743 = CARTESIAN_POINT('',(0.969299051125,134.31233353044));
#744 = CARTESIAN_POINT('',(1.01397211856,134.11886707079));
#745 = CARTESIAN_POINT('',(1.061274567222,133.93595696525));
#746 = CARTESIAN_POINT('',(1.144203954389,133.65569427503));
#747 = CARTESIAN_POINT('',(1.178320908228,133.55024901802));
#748 = CARTESIAN_POINT('',(1.213779337842,133.45126054995));
#749 = CARTESIAN_POINT('',(1.250592749019,133.35994442591));
#750 = CARTESIAN_POINT('',(1.288778403319,133.27764757831));
#751 = CARTESIAN_POINT('',(1.328358433851,133.20586361865));
#752 = CARTESIAN_POINT('',(1.416101085558,133.07829050052));
#753 = CARTESIAN_POINT('',(1.464880504741,133.02586833642));
#754 = CARTESIAN_POINT('',(1.514935068799,132.99288099087));
#755 = CARTESIAN_POINT('',(1.565586298032,132.98151257001));
#756 = CARTESIAN_POINT('',(1.616190066385,132.99231418481));
#757 = CARTESIAN_POINT('',(1.666088535376,133.02421375427));
#758 = CARTESIAN_POINT('',(1.741324870099,133.10218598537));
#759 = CARTESIAN_POINT('',(1.767625631176,133.13548058218));
#760 = CARTESIAN_POINT('',(1.793443935217,133.17395297163));
#761 = CARTESIAN_POINT('',(1.818754106232,133.21719851892));
#762 = CARTESIAN_POINT('',(1.843528299527,133.26479052377));
#763 = CARTESIAN_POINT('',(1.867736322612,133.31627860165));
#764 = CARTESIAN_POINT('',(1.912864469872,133.42123447496));
#765 = CARTESIAN_POINT('',(1.933911846172,133.47418358184));
#766 = CARTESIAN_POINT('',(1.95449949911,133.5297771999));
#767 = CARTESIAN_POINT('',(1.974638554123,133.58778177808));
#768 = CARTESIAN_POINT('',(1.994339759119,133.64798742801));
#769 = CARTESIAN_POINT('',(2.013613895619,133.71020795196));
#770 = CARTESIAN_POINT('',(2.082828099455,133.94537005095));
#771 = CARTESIAN_POINT('',(2.130315765963,134.12999640461));
#772 = CARTESIAN_POINT('',(2.175149234568,134.32523976341));
#773 = CARTESIAN_POINT('',(2.217511585556,134.5292397982));
#774 = CARTESIAN_POINT('',(2.257559661079,134.74105320501));
#775 = CARTESIAN_POINT('',(2.295396372308,134.96050472853));
#776 = CARTESIAN_POINT('',(2.36337141333,135.39508901089));
#777 = CARTESIAN_POINT('',(2.393821054048,135.60832339636));
#778 = CARTESIAN_POINT('',(2.422329783501,135.82806218414));
#779 = CARTESIAN_POINT('',(2.448736784383,136.05460051505));
#780 = CARTESIAN_POINT('',(2.472736485104,136.28814339442));
#781 = CARTESIAN_POINT('',(2.493878014182,136.52888825115));
#782 = CARTESIAN_POINT('',(2.523471690218,136.94367411315));
#783 = CARTESIAN_POINT('',(2.533865851508,137.11429477955));
#784 = CARTESIAN_POINT('',(2.542492728276,137.28800402082));
#785 = CARTESIAN_POINT('',(2.54913434687,137.4639632151));
#786 = CARTESIAN_POINT('',(2.553637194335,137.6415684892));
#787 = CARTESIAN_POINT('',(2.555907110133,137.82037209582));
#788 = CARTESIAN_POINT('',(2.555907110133,138.11561640005));
#789 = CARTESIAN_POINT('',(2.554966699362,138.23111773489));
#790 = CARTESIAN_POINT('',(2.55308922724,138.34631386812));
#791 = CARTESIAN_POINT('',(2.550292084031,138.46100736487));
#792 = CARTESIAN_POINT('',(2.546607010387,138.57497890974));
#793 = CARTESIAN_POINT('',(2.542080670549,138.68797286955));
#794 = CARTESIAN_POINT('',(2.533841682515,138.86145957514));
#795 = CARTESIAN_POINT('',(2.530667982247,138.92287956608));
#796 = CARTESIAN_POINT('',(2.527262336153,138.98393487828));
#797 = CARTESIAN_POINT('',(2.523633006103,139.04461475399));
#798 = CARTESIAN_POINT('',(2.519788578735,139.10490576906));
#799 = CARTESIAN_POINT('',(2.515737976095,139.16479182893));
#800 = CARTESIAN_POINT('',(2.493511569931,139.47594685514));
#801 = CARTESIAN_POINT('',(2.472024141445,139.71977671083));
#802 = CARTESIAN_POINT('',(2.447611274187,139.9562175525));
#803 = CARTESIAN_POINT('',(2.420740041292,140.18547223271));
#804 = CARTESIAN_POINT('',(2.391723764787,140.40775443562));
#805 = CARTESIAN_POINT('',(2.3607234611,140.62337314794));
#806 = CARTESIAN_POINT('',(2.292201451403,141.05810298917));
#807 = CARTESIAN_POINT('',(2.254452816415,141.27557881063));
#808 = CARTESIAN_POINT('',(2.21451867242,141.48549829716));
#809 = CARTESIAN_POINT('',(2.172293402876,141.68766740295));
#810 = CARTESIAN_POINT('',(2.127620326703,141.8811337684));
#811 = CARTESIAN_POINT('',(2.08031793952,142.06404353102));
#812 = CARTESIAN_POINT('',(2.011977914169,142.29500097576));
#813 = CARTESIAN_POINT('',(1.993394758397,142.3547677863));
#814 = CARTESIAN_POINT('',(1.974415431995,142.41265783961));
#815 = CARTESIAN_POINT('',(1.955030152898,142.46850485286));
#816 = CARTESIAN_POINT('',(1.935229159809,142.52212204157));
#817 = CARTESIAN_POINT('',(1.915002371319,142.5733021502));
#818 = CARTESIAN_POINT('',(1.852907754606,142.71909382622));
#819 = CARTESIAN_POINT('',(1.809254337522,142.8067532036));
#820 = CARTESIAN_POINT('',(1.763799053089,142.88116596189));
#821 = CARTESIAN_POINT('',(1.716907084157,142.93948505306));
#822 = CARTESIAN_POINT('',(1.668906342954,142.97957838885));
#823 = CARTESIAN_POINT('',(1.620103227247,143.));
#824 = CARTESIAN_POINT('',(1.570796326795,143.));
#825 = ( GEOMETRIC_REPRESENTATION_CONTEXT(2) 
PARAMETRIC_REPRESENTATION_CONTEXT() REPRESENTATION_CONTEXT('2D SPACE',''
  ) );
#826 = PCURVE('',#827,#832);
#827 = CYLINDRICAL_SURFACE('',#828,5.);
#828 = AXIS2_PLACEMENT_3D('',#829,#830,#831);
#829 = CARTESIAN_POINT('',(60.,-82.,294.));
#830 = DIRECTION('',(0.,1.,0.));
#831 = DIRECTION('',(0.,0.,1.));
#832 = DEFINITIONAL_REPRESENTATION('',(#833),#968);
#833 = B_SPLINE_CURVE_WITH_KNOTS('',7,(#834,#835,#836,#837,#838,#839,
    #840,#841,#842,#843,#844,#845,#846,#847,#848,#849,#850,#851,#852,
    #853,#854,#855,#856,#857,#858,#859,#860,#861,#862,#863,#864,#865,
    #866,#867,#868,#869,#870,#871,#872,#873,#874,#875,#876,#877,#878,
    #879,#880,#881,#882,#883,#884,#885,#886,#887,#888,#889,#890,#891,
    #892,#893,#894,#895,#896,#897,#898,#899,#900,#901,#902,#903,#904,
    #905,#906,#907,#908,#909,#910,#911,#912,#913,#914,#915,#916,#917,
    #918,#919,#920,#921,#922,#923,#924,#925,#926,#927,#928,#929,#930,
    #931,#932,#933,#934,#935,#936,#937,#938,#939,#940,#941,#942,#943,
    #944,#945,#946,#947,#948,#949,#950,#951,#952,#953,#954,#955,#956,
    #957,#958,#959,#960,#961,#962,#963,#964,#965,#966,#967),
  .UNSPECIFIED.,.F.,.F.,(8,6,6,6,6,6,6,6,6,6,6,6,6,6,6,6,6,6,6,6,6,6,8),
  (0.,4.954727603006E-02,7.548850936747E-02,0.143751447839,
    0.207746949872,0.222855880568,0.250042079725,0.293382912888,
    0.356596016829,0.425727628083,0.470929766338,0.522457165144,
    0.550900646921,0.576826023497,0.6460526406,0.708998281994,
    0.751160348897,0.778297704959,0.793304874633,0.856827352579,
    0.925312858449,0.950166619675,1.),.UNSPECIFIED.);
#834 = CARTESIAN_POINT('',(0.,6.));
#835 = CARTESIAN_POINT('',(5.854232579466E-02,6.));
#836 = CARTESIAN_POINT('',(0.11651726196,5.983339902735));
#837 = CARTESIAN_POINT('',(0.173666615482,5.950601287384));
#838 = CARTESIAN_POINT('',(0.229713227682,5.903065989711));
#839 = CARTESIAN_POINT('',(0.284345124378,5.842694269018));
#840 = CARTESIAN_POINT('',(0.33718554103,5.772078904863));
#841 = CARTESIAN_POINT('',(0.414222001526,5.653692274056));
#842 = CARTESIAN_POINT('',(0.440227842647,5.610825193617));
#843 = CARTESIAN_POINT('',(0.465787655685,5.566024648195));
#844 = CARTESIAN_POINT('',(0.490921433706,5.519522429816));
#845 = CARTESIAN_POINT('',(0.515648587152,5.47153159523));
#846 = CARTESIAN_POINT('',(0.539988677638,5.422246604562));
#847 = CARTESIAN_POINT('',(0.627047039284,5.239210338287));
#848 = CARTESIAN_POINT('',(0.68770824555,5.098592539386));
#849 = CARTESIAN_POINT('',(0.746324580373,4.953094802193));
#850 = CARTESIAN_POINT('',(0.803259183781,4.805078762425));
#851 = CARTESIAN_POINT('',(0.858896183455,4.656360179887));
#852 = CARTESIAN_POINT('',(0.913640100332,4.508470059748));
#853 = CARTESIAN_POINT('',(1.018844819615,4.226933537809));
#854 = CARTESIAN_POINT('',(1.069236842638,4.093302782111));
#855 = CARTESIAN_POINT('',(1.119464661224,3.963755982974));
#856 = CARTESIAN_POINT('',(1.169801622465,3.840192072598));
#857 = CARTESIAN_POINT('',(1.220473066112,3.725192817395));
#858 = CARTESIAN_POINT('',(1.271694537834,3.622125223318));
#859 = CARTESIAN_POINT('',(1.336038788432,3.51421946573));
#860 = CARTESIAN_POINT('',(1.348371806271,3.494493904255));
#861 = CARTESIAN_POINT('',(1.360746661061,3.47571108978));
#862 = CARTESIAN_POINT('',(1.373162600715,3.457927488206));
#863 = CARTESIAN_POINT('',(1.385619542503,3.441197511635));
#864 = CARTESIAN_POINT('',(1.398118052494,3.42557332921));
#865 = CARTESIAN_POINT('',(1.433225417768,3.385070563288));
#866 = CARTESIAN_POINT('',(1.455953386171,3.362750644957));
#867 = CARTESIAN_POINT('',(1.478798084526,3.34450932863));
#868 = CARTESIAN_POINT('',(1.501726870104,3.330627352109));
#869 = CARTESIAN_POINT('',(1.524715510559,3.321297802046));
#870 = CARTESIAN_POINT('',(1.547744577587,3.316624790355));
#871 = CARTESIAN_POINT('',(1.607545929443,3.316624790355));
#872 = CARTESIAN_POINT('',(1.644113220085,3.328501036662));
#873 = CARTESIAN_POINT('',(1.68050430531,3.352043921146));
#874 = CARTESIAN_POINT('',(1.716704101674,3.386623719648));
#875 = CARTESIAN_POINT('',(1.752661332817,3.43118562747));
#876 = CARTESIAN_POINT('',(1.788265026306,3.484273408862));
#877 = CARTESIAN_POINT('',(1.874429668742,3.631312683854));
#878 = CARTESIAN_POINT('',(1.924759388703,3.733514332348));
#879 = CARTESIAN_POINT('',(1.974567559337,3.847060364473));
#880 = CARTESIAN_POINT('',(2.024060555373,3.968782774263));
#881 = CARTESIAN_POINT('',(2.073454940658,4.096247180926));
#882 = CARTESIAN_POINT('',(2.123012511824,4.227653912266));
#883 = CARTESIAN_POINT('',(2.2278031589,4.508057210197));
#884 = CARTESIAN_POINT('',(2.282988245848,4.657160824488));
#885 = CARTESIAN_POINT('',(2.339081277531,4.80710356159));
#886 = CARTESIAN_POINT('',(2.39649721182,4.956321955571));
#887 = CARTESIAN_POINT('',(2.455629887307,5.102954392511));
#888 = CARTESIAN_POINT('',(2.516851187724,5.24457091336));
#889 = CARTESIAN_POINT('',(2.622199322485,5.465191935252));
#890 = CARTESIAN_POINT('',(2.665055476072,5.549210303003));
#891 = CARTESIAN_POINT('',(2.70915980591,5.628914614144));
#892 = CARTESIAN_POINT('',(2.75455897283,5.703090402075));
#893 = CARTESIAN_POINT('',(2.801307771625,5.770416044435));
#894 = CARTESIAN_POINT('',(2.84947227949,5.829460730919));
#895 = CARTESIAN_POINT('',(2.955742892377,5.934791860262));
#896 = CARTESIAN_POINT('',(3.014528146039,5.978366208315));
#897 = CARTESIAN_POINT('',(3.074629857498,6.005933577407));
#898 = CARTESIAN_POINT('',(3.13533756451,6.015447100934));
#899 = CARTESIAN_POINT('',(3.19599901602,6.006385812046));
#900 = CARTESIAN_POINT('',(3.255938002271,5.979771013341));
#901 = CARTESIAN_POINT('',(3.346640775659,5.915094436654));
#902 = CARTESIAN_POINT('',(3.378414353633,5.887524341811));
#903 = CARTESIAN_POINT('',(3.409686923824,5.855741193337));
#904 = CARTESIAN_POINT('',(3.44044057739,5.820123299097));
#905 = CARTESIAN_POINT('',(3.470653092691,5.781071865502));
#906 = CARTESIAN_POINT('',(3.500297471703,5.739008918328));
#907 = CARTESIAN_POINT('',(3.555814211579,5.653692955666));
#908 = CARTESIAN_POINT('',(3.581820016344,5.610826023579));
#909 = CARTESIAN_POINT('',(3.607380040787,5.5660251824));
#910 = CARTESIAN_POINT('',(3.632514123821,5.519522413927));
#911 = CARTESIAN_POINT('',(3.657241524588,5.471531055069));
#912 = CARTESIAN_POINT('',(3.681581653844,5.422245926277));
#913 = CARTESIAN_POINT('',(3.769568540063,5.237257479098));
#914 = CARTESIAN_POINT('',(3.83108868322,5.094445787269));
#915 = CARTESIAN_POINT('',(3.890510528477,4.946651806853));
#916 = CARTESIAN_POINT('',(3.948212250855,4.796333716466));
#917 = CARTESIAN_POINT('',(4.004594410704,4.645376534513));
#918 = CARTESIAN_POINT('',(4.060078663459,4.49537408295));
#919 = CARTESIAN_POINT('',(4.165192639194,4.214337387167));
#920 = CARTESIAN_POINT('',(4.214779772021,4.083129900644));
#921 = CARTESIAN_POINT('',(4.26422422282,3.955996217749));
#922 = CARTESIAN_POINT('',(4.313784972882,3.834776239764));
#923 = CARTESIAN_POINT('',(4.363676699724,3.721955495466));
#924 = CARTESIAN_POINT('',(4.414105718033,3.620752548477));
#925 = CARTESIAN_POINT('',(4.499660442033,3.477276678875));
#926 = CARTESIAN_POINT('',(4.534506477997,3.426302542406));
#927 = CARTESIAN_POINT('',(4.569690108169,3.38358925981));
#928 = CARTESIAN_POINT('',(4.605105761036,3.350488371242));
#929 = CARTESIAN_POINT('',(4.640702729221,3.327974463062));
#930 = CARTESIAN_POINT('',(4.676463399549,3.316624790355));
#931 = CARTESIAN_POINT('',(4.735512260396,3.316624790355));
#932 = CARTESIAN_POINT('',(4.758612523529,3.321326847986));
#933 = CARTESIAN_POINT('',(4.781671957772,3.330714195484));
#934 = CARTESIAN_POINT('',(4.80467103875,3.344681450583));
#935 = CARTESIAN_POINT('',(4.827585369993,3.36303326172));
#936 = CARTESIAN_POINT('',(4.850382027185,3.385485658078));
#937 = CARTESIAN_POINT('',(4.885531841721,3.426150307672));
#938 = CARTESIAN_POINT('',(4.898005644325,3.44178027745));
#939 = CARTESIAN_POINT('',(4.910438009995,3.458510504904));
#940 = CARTESIAN_POINT('',(4.922829512419,3.47628908707));
#941 = CARTESIAN_POINT('',(4.935180082906,3.495061914009));
#942 = CARTESIAN_POINT('',(4.947488990116,3.514772855896));
#943 = CARTESIAN_POINT('',(5.011673729983,3.622522112286));
#944 = CARTESIAN_POINT('',(5.062764905613,3.725355754801));
#945 = CARTESIAN_POINT('',(5.113308989052,3.840055205035));
#946 = CARTESIAN_POINT('',(5.163520055357,3.963280082212));
#947 = CARTESIAN_POINT('',(5.213621862524,4.092466934354));
#948 = CARTESIAN_POINT('',(5.263885649335,4.225728600349));
#949 = CARTESIAN_POINT('',(5.369395856247,4.508057327284));
#950 = CARTESIAN_POINT('',(5.424581028477,4.65716117232));
#951 = CARTESIAN_POINT('',(5.48067414402,4.807104133684));
#952 = CARTESIAN_POINT('',(5.538090134379,4.95632265184));
#953 = CARTESIAN_POINT('',(5.597222812151,5.102955039345));
#954 = CARTESIAN_POINT('',(5.658444027859,5.244571304025));
#955 = CARTESIAN_POINT('',(5.745258780098,5.42637954769));
#956 = CARTESIAN_POINT('',(5.768716624415,5.473739610475));
#957 = CARTESIAN_POINT('',(5.792534114068,5.519891004662));
#958 = CARTESIAN_POINT('',(5.816728774333,5.564659794083));
#959 = CARTESIAN_POINT('',(5.841318006449,5.607856027986));
#960 = CARTESIAN_POINT('',(5.866319696,5.649273625032));
#961 = CARTESIAN_POINT('',(5.942747863587,5.767723125105));
#962 = CARTESIAN_POINT('',(5.996052270792,5.839602536637));
#963 = CARTESIAN_POINT('',(6.051178218345,5.901104854576));
#964 = CARTESIAN_POINT('',(6.107748826678,5.949571551835));
#965 = CARTESIAN_POINT('',(6.165453363512,5.982981716903));
#966 = CARTESIAN_POINT('',(6.224017026637,6.));
#967 = CARTESIAN_POINT('',(6.28318530718,6.));
#968 = ( GEOMETRIC_REPRESENTATION_CONTEXT(2) 
PARAMETRIC_REPRESENTATION_CONTEXT() REPRESENTATION_CONTEXT('2D SPACE',''
  ) );
#969 = ADVANCED_FACE('',(#970),#61,.T.);
#970 = FACE_BOUND('',#971,.T.);
#971 = EDGE_LOOP('',(#972));
#972 = ORIENTED_EDGE('',*,*,#39,.T.);
#973 = ADVANCED_FACE('',(#974),#111,.F.);
#974 = FACE_BOUND('',#975,.T.);
#975 = EDGE_LOOP('',(#976));
#976 = ORIENTED_EDGE('',*,*,#96,.F.);
#977 = ADVANCED_FACE('',(#978),#404,.T.);
#978 = FACE_BOUND('',#979,.T.);
#979 = EDGE_LOOP('',(#980,#1003,#1030,#1031));
#980 = ORIENTED_EDGE('',*,*,#981,.T.);
#981 = EDGE_CURVE('',#127,#982,#984,.T.);
#982 = VERTEX_POINT('',#983);
#983 = CARTESIAN_POINT('',(60.,-51.,171.));
#984 = SEAM_CURVE('',#985,(#989,#996),.PCURVE_S1.);
#985 = LINE('',#986,#987);
#986 = CARTESIAN_POINT('',(60.,-82.,171.));
#987 = VECTOR('',#988,1.);
#988 = DIRECTION('',(0.,1.,0.));
#989 = PCURVE('',#404,#990);
#990 = DEFINITIONAL_REPRESENTATION('',(#991),#995);
#991 = LINE('',#992,#993);
#992 = CARTESIAN_POINT('',(6.28318530718,0.));
#993 = VECTOR('',#994,1.);
#994 = DIRECTION('',(0.,1.));
#995 = ( GEOMETRIC_REPRESENTATION_CONTEXT(2) 
PARAMETRIC_REPRESENTATION_CONTEXT() REPRESENTATION_CONTEXT('2D SPACE',''
  ) );
#996 = PCURVE('',#404,#997);
#997 = DEFINITIONAL_REPRESENTATION('',(#998),#1002);
#998 = LINE('',#999,#1000);
#999 = CARTESIAN_POINT('',(0.,0.));
#1000 = VECTOR('',#1001,1.);
#1001 = DIRECTION('',(0.,1.));
#1002 = ( GEOMETRIC_REPRESENTATION_CONTEXT(2) 
PARAMETRIC_REPRESENTATION_CONTEXT() REPRESENTATION_CONTEXT('2D SPACE',''
  ) );
#1003 = ORIENTED_EDGE('',*,*,#1004,.F.);
#1004 = EDGE_CURVE('',#982,#982,#1005,.T.);
#1005 = SURFACE_CURVE('',#1006,(#1011,#1018),.PCURVE_S1.);
#1006 = CIRCLE('',#1007,5.);
#1007 = AXIS2_PLACEMENT_3D('',#1008,#1009,#1010);
#1008 = CARTESIAN_POINT('',(60.,-51.,166.));
#1009 = DIRECTION('',(0.,1.,0.));
#1010 = DIRECTION('',(0.,0.,1.));
#1011 = PCURVE('',#404,#1012);
#1012 = DEFINITIONAL_REPRESENTATION('',(#1013),#1017);
#1013 = LINE('',#1014,#1015);
#1014 = CARTESIAN_POINT('',(0.,31.));
#1015 = VECTOR('',#1016,1.);
#1016 = DIRECTION('',(1.,0.));
#1017 = ( GEOMETRIC_REPRESENTATION_CONTEXT(2) 
PARAMETRIC_REPRESENTATION_CONTEXT() REPRESENTATION_CONTEXT('2D SPACE',''
  ) );
#1018 = PCURVE('',#1019,#1024);
#1019 = PLANE('',#1020);
#1020 = AXIS2_PLACEMENT_3D('',#1021,#1022,#1023);
#1021 = CARTESIAN_POINT('',(60.,-51.,166.));
#1022 = DIRECTION('',(0.,1.,0.));
#1023 = DIRECTION('',(0.,0.,1.));
#1024 = DEFINITIONAL_REPRESENTATION('',(#1025),#1029);
#1025 = CIRCLE('',#1026,5.);
#1026 = AXIS2_PLACEMENT_2D('',#1027,#1028);
#1027 = CARTESIAN_POINT('',(0.,0.));
#1028 = DIRECTION('',(1.,0.));
#1029 = ( GEOMETRIC_REPRESENTATION_CONTEXT(2) 
PARAMETRIC_REPRESENTATION_CONTEXT() REPRESENTATION_CONTEXT('2D SPACE',''
  ) );
#1030 = ORIENTED_EDGE('',*,*,#981,.F.);
#1031 = ORIENTED_EDGE('',*,*,#126,.T.);
#1032 = ADVANCED_FACE('',(#1033),#827,.T.);
#1033 = FACE_BOUND('',#1034,.T.);
#1034 = EDGE_LOOP('',(#1035,#1058,#1085,#1086));
#1035 = ORIENTED_EDGE('',*,*,#1036,.T.);
#1036 = EDGE_CURVE('',#550,#1037,#1039,.T.);
#1037 = VERTEX_POINT('',#1038);
#1038 = CARTESIAN_POINT('',(60.,-51.,299.));
#1039 = SEAM_CURVE('',#1040,(#1044,#1051),.PCURVE_S1.);
#1040 = LINE('',#1041,#1042);
#1041 = CARTESIAN_POINT('',(60.,-82.,299.));
#1042 = VECTOR('',#1043,1.);
#1043 = DIRECTION('',(0.,1.,0.));
#1044 = PCURVE('',#827,#1045);
#1045 = DEFINITIONAL_REPRESENTATION('',(#1046),#1050);
#1046 = LINE('',#1047,#1048);
#1047 = CARTESIAN_POINT('',(6.28318530718,0.));
#1048 = VECTOR('',#1049,1.);
#1049 = DIRECTION('',(0.,1.));
#1050 = ( GEOMETRIC_REPRESENTATION_CONTEXT(2) 
PARAMETRIC_REPRESENTATION_CONTEXT() REPRESENTATION_CONTEXT('2D SPACE',''
  ) );
#1051 = PCURVE('',#827,#1052);
#1052 = DEFINITIONAL_REPRESENTATION('',(#1053),#1057);
#1053 = LINE('',#1054,#1055);
#1054 = CARTESIAN_POINT('',(0.,0.));
#1055 = VECTOR('',#1056,1.);
#1056 = DIRECTION('',(0.,1.));
#1057 = ( GEOMETRIC_REPRESENTATION_CONTEXT(2) 
PARAMETRIC_REPRESENTATION_CONTEXT() REPRESENTATION_CONTEXT('2D SPACE',''
  ) );
#1058 = ORIENTED_EDGE('',*,*,#1059,.F.);
#1059 = EDGE_CURVE('',#1037,#1037,#1060,.T.);
#1060 = SURFACE_CURVE('',#1061,(#1066,#1073),.PCURVE_S1.);
#1061 = CIRCLE('',#1062,5.);
#1062 = AXIS2_PLACEMENT_3D('',#1063,#1064,#1065);
#1063 = CARTESIAN_POINT('',(60.,-51.,294.));
#1064 = DIRECTION('',(0.,1.,0.));
#1065 = DIRECTION('',(0.,0.,1.));
#1066 = PCURVE('',#827,#1067);
#1067 = DEFINITIONAL_REPRESENTATION('',(#1068),#1072);
#1068 = LINE('',#1069,#1070);
#1069 = CARTESIAN_POINT('',(0.,31.));
#1070 = VECTOR('',#1071,1.);
#1071 = DIRECTION('',(1.,0.));
#1072 = ( GEOMETRIC_REPRESENTATION_CONTEXT(2) 
PARAMETRIC_REPRESENTATION_CONTEXT() REPRESENTATION_CONTEXT('2D SPACE',''
  ) );
#1073 = PCURVE('',#1074,#1079);
#1074 = PLANE('',#1075);
#1075 = AXIS2_PLACEMENT_3D('',#1076,#1077,#1078);
#1076 = CARTESIAN_POINT('',(60.,-51.,294.));
#1077 = DIRECTION('',(0.,1.,0.));
#1078 = DIRECTION('',(0.,0.,1.));
#1079 = DEFINITIONAL_REPRESENTATION('',(#1080),#1084);
#1080 = CIRCLE('',#1081,5.);
#1081 = AXIS2_PLACEMENT_2D('',#1082,#1083);
#1082 = CARTESIAN_POINT('',(0.,0.));
#1083 = DIRECTION('',(1.,0.));
#1084 = ( GEOMETRIC_REPRESENTATION_CONTEXT(2) 
PARAMETRIC_REPRESENTATION_CONTEXT() REPRESENTATION_CONTEXT('2D SPACE',''
  ) );
#1085 = ORIENTED_EDGE('',*,*,#1036,.F.);
#1086 = ORIENTED_EDGE('',*,*,#549,.T.);
#1087 = ADVANCED_FACE('',(#1088),#1019,.T.);
#1088 = FACE_BOUND('',#1089,.T.);
#1089 = EDGE_LOOP('',(#1090));
#1090 = ORIENTED_EDGE('',*,*,#1004,.T.);
#1091 = ADVANCED_FACE('',(#1092),#1074,.T.);
#1092 = FACE_BOUND('',#1093,.T.);
#1093 = EDGE_LOOP('',(#1094));
#1094 = ORIENTED_EDGE('',*,*,#1059,.T.);
#1095 = ( GEOMETRIC_REPRESENTATION_CONTEXT(3) 
GLOBAL_UNCERTAINTY_ASSIGNED_CONTEXT((#1099)) 
GLOBAL_UNIT_ASSIGNED_CONTEXT((#1096,#1097,#1098)) REPRESENTATION_CONTEXT
('Context #1','3D Context with UNIT and UNCERTAINTY') );
#1096 = ( LENGTH_UNIT() NAMED_UNIT(*) SI_UNIT(.MILLI.,.METRE.) );
#1097 = ( NAMED_UNIT(*) PLANE_ANGLE_UNIT() SI_UNIT($,.RADIAN.) );
#1098 = ( NAMED_UNIT(*) SI_UNIT($,.STERADIAN.) SOLID_ANGLE_UNIT() );
#1099 = UNCERTAINTY_MEASURE_WITH_UNIT(LENGTH_MEASURE(2.E-07),#1096,
  'distance_accuracy_value','confusion accuracy');
#1100 = CONTEXT_DEPENDENT_SHAPE_REPRESENTATION(#1101,#1103);
#1101 = ( REPRESENTATION_RELATIONSHIP('','',#32,#10) 
REPRESENTATION_RELATIONSHIP_WITH_TRANSFORMATION(#1102) 
SHAPE_REPRESENTATION_RELATIONSHIP() );
#1102 = ITEM_DEFINED_TRANSFORMATION('','',#11,#15);
#1103 = PRODUCT_DEFINITION_SHAPE('Placement','Placement of an item',
  #1104);
#1104 = NEXT_ASSEMBLY_USAGE_OCCURRENCE('1','door_handle','',#5,#27,$);
#1105 = PRODUCT_RELATED_PRODUCT_CATEGORY('part',$,(#29));
ENDSEC;
END-ISO-10303-21;
